<?xml version="1.0" standalone="no"?><!DOCTYPE svg PUBLIC "-//W3C//DTD SVG 1.1//EN" "http://www.w3.org/Graphics/SVG/1.1/DTD/svg11.dtd" ><svg xmlns="http://www.w3.org/2000/svg"><metadata></metadata><defs><font id="书体坊兰亭体:Version 1.01" horiz-adv-x="2291"><font-face font-family="书体坊兰亭体" font-weight="400" font-stretch="normal" units-per-em="2048" panose-1="3 0 5 9 0 0 0 0 0 0" ascent="2189" descent="-555" x-height="0" bbox="-135 -526 2074 1583" underline-thickness="102" underline-position="-205" unicode-range="U+002b-ff1a" /><missing-glyph horiz-adv-x="2048"  /><glyph glyph-name="" unicode="+" d="M170 547 L170 705 L639 705 L639 1176 L797 1176 L797 705 L1268 705 L1268 547 L797 547 L797 82 L639 82 L639 547 L170 547 Z" /><glyph glyph-name="" unicode="-" d="M688 588 Q722 596 729 596.5 Q736 597 782 588 Q798 586 808.5 584 Q819 582 827.5 578.5 Q836 575 836 571 Q836 562 782 516.5 Q728 471 674 457 Q640 446 552 438 Q464 430 356 430 Q299 430 270.5 434.5 Q242 439 242 455 Q242 463 256.5 484.5 Q271 506 295 530 Q362 598 541 598 Q571 598 688 588 Z" /><glyph glyph-name="" unicode="f" d="M664 498 L815 498 Q946 674 1014.5 805 Q1083 936 1083 977 Q1083 1034 985 1034 Q928 1029 783 1009.5 Q638 990 502 963 Q380 940 306.5 915.5 Q233 891 203 875 Q173 859 166 852 Q240 856 291 856 Q371 856 371 838 Q371 830 315 817.5 Q259 805 209 791 Q160 777 113.5 758 Q67 739 57 739 Q34 739 19 756.5 Q4 774 4 799 Q4 816 31.5 887.5 Q59 959 109 1031.5 Q159 1104 233 1139 Q260 1152 405.5 1186 Q551 1220 734 1248 Q917 1276 1069 1276 Q1161 1276 1216.5 1250.5 Q1272 1225 1272 1141 Q1272 1114 1252 1057.5 Q1232 1001 1188.5 913 Q1145 825 1082.5 720 Q1020 615 940 498 L1094 498 L961 307 Q934 305 893.5 304 Q853 303 805 301 Q682 141 538.5 0 Q395 -141 278.5 -226 Q162 -311 115 -311 Q96 -311 82 -298.5 Q68 -286 68 -266 Q68 -249 112.5 -179 Q157 -109 236 -48 Q315 13 416 20 Q457 63 486.5 96.5 Q516 130 570 193.5 Q624 257 653 291 L352 276 Q303 274 284.5 280.5 Q266 287 266 313 Q266 313 276 338.5 Q286 364 297 383 Q313 412 322.5 418 Q332 424 377 434 L561 479 Q635 498 664 498 Z" /><glyph glyph-name="" unicode="l" d="M1075 758 L1106 727 Q1024 624 962.5 577 Q901 530 872 530 Q848 530 848 573 Q848 680 989 903 Q1108 1096 1108 1118 Q1108 1137 1092 1137 Q1064 1137 951 1011 Q838 885 672 655 Q484 399 414 289 Q547 276 632.5 255.5 Q718 235 880.5 189 Q1043 143 1120 135 Q1026 28 990.5 -10.5 Q955 -49 936 -57 Q906 -70 847 -58.5 Q788 -47 660 -14 Q532 19 420.5 41 Q309 63 217 63 Q165 63 127.5 51 Q90 39 23.5 11.5 Q-43 -16 -70 -16 Q-109 -16 -109 16 Q-109 34 -96 57 Q-63 110 -32 158 Q-1 206 34 233 Q69 260 135 275 Q201 290 309 291 Q472 541 613 734.5 Q754 928 869.5 1061 Q985 1194 1072 1262.5 Q1159 1331 1210 1331 Q1246 1331 1266 1311 Q1286 1291 1286 1255 Q1286 1135 1075 758 Z" /><glyph glyph-name="" unicode="s" d="M1051 289 Q1026 335 976 372 Q926 409 863.5 431.5 Q801 454 733 465 Q531 495 356 596 Q341 604 324 630 Q307 656 307 680 Q307 768 336.5 856.5 Q366 945 412 995 Q486 1078 678.5 1140 Q871 1202 1112 1202 Q1256 1202 1334.5 1180 Q1413 1158 1413 1112 Q1413 1037 1392.5 996 Q1372 955 1348.5 941.5 Q1325 928 1266 905 Q1203 883 1156.5 859 Q1110 835 1077 813 Q1044 791 1036 791 Q1026 791 1026 799 Q1026 816 1061.5 850.5 Q1097 885 1149 911 Q1204 940 1204 948 Q1204 961 1143 961 Q958 961 801 928 Q644 895 553.5 841 Q463 787 463 731 Q463 696 500.5 681.5 Q538 667 666 633 Q794 599 895 555 Q1040 493 1110 426 Q1180 359 1180 276 Q1180 219 1152.5 161.5 Q1125 104 1072 56 Q1019 8 950 -23 Q891 -48 801.5 -70 Q712 -92 607.5 -104.5 Q503 -117 408 -117 Q233 -117 126.5 -84 Q20 -51 20 16 Q20 46 56 109.5 Q92 173 141 195 Q184 212 224 214.5 Q264 217 264 205 Q264 202 261 199 Q258 196 254 194 Q250 192 246 190 Q226 182 213.5 177.5 Q201 173 193.5 168.5 Q186 164 186 156 Q186 135 393 135 Q573 135 688 148 Q803 161 891 195 Q979 229 1051 289 Z" /><glyph glyph-name="" unicode="w" d="M88 162 Q88 185 98 226.5 Q108 268 125 291 Q168 352 204 403 Q240 454 268 491 Q296 528 324 557 Q495 742 569 833.5 Q643 925 643 961 Q643 985 621 998.5 Q599 1012 563 1012 Q489 1012 377 959.5 Q265 907 115.5 823 Q-34 739 -51 739 Q-78 739 -78 778 Q-78 811 -57 872 Q-41 938 -31 974.5 Q-21 1011 2.5 1040 Q26 1069 80.5 1103 Q135 1137 248 1196 L258 1159 Q352 1197 435.5 1217 Q519 1237 578 1237 Q694 1237 742.5 1197.5 Q791 1158 791 1026 Q791 954 770 906 Q749 858 688 772 Q549 570 479 492 Q276 260 276 221 Q276 199 305 199 Q329 199 373 233 Q417 267 479 331 Q541 395 651 514 Q768 640 848.5 736.5 Q929 833 981 901.5 Q1033 970 1036 975 Q1090 1041 1147.5 1083.5 Q1205 1126 1221 1126 Q1233 1126 1249 1104 Q1265 1082 1276.5 1052 Q1288 1022 1288 1006 Q1288 1001 1264 957.5 Q1240 914 1212 867.5 Q1184 821 1122 725 Q986 514 914 370.5 Q842 227 842 182 Q842 166 853.5 152.5 Q865 139 877 139 Q893 139 935 164.5 Q977 190 1028 238 Q1095 302 1150 371 Q1205 440 1259 525 Q1313 610 1355 686 Q1397 762 1440 846 L1423 897 Q1419 909 1419 928 Q1419 943 1478 1025.5 Q1537 1108 1556 1108 Q1577 1108 1591.5 1077.5 Q1606 1047 1606 1016 Q1606 982 1575.5 880.5 Q1545 779 1480.5 635 Q1416 491 1321 342 Q1239 212 1145.5 119.5 Q1052 27 977 -18 Q902 -63 866 -63 Q825 -63 780 -27 Q743 5 727.5 30.5 Q712 56 707 86 Q702 116 702 156 Q702 241 749 355 Q796 469 889 639 Q598 285 438.5 124 Q279 -37 205 -37 Q156 -37 122 21.5 Q88 80 88 162 Z" /><glyph glyph-name="" unicode="a" d="M133 494 Q285 632 428 699 Q571 766 649 766 Q670 766 688 748.5 Q706 731 716.5 708 Q727 685 727 674 Q727 656 713 647.5 Q699 639 664 627 Q671 611 682 586 Q693 561 699 545.5 Q705 530 705 518 Q705 494 656.5 428.5 Q608 363 588.5 332 Q569 301 569 256 Q569 182 637 182 Q707 182 856 313 L856 252 Q603 -29 494 -29 Q455 -29 438.5 -3.5 Q422 22 422 72 Q422 151 479 301 Q333 139 262 70.5 Q191 2 145 2 Q123 2 90 40 Q57 78 31.5 138.5 Q6 199 6 264 Q6 311 15 342.5 Q24 374 50 407 Q76 440 133 494 ZM612 604 Q352 485 241.5 402 Q131 319 131 231 Q131 199 142 178.5 Q153 158 172 158 Q183 158 211 172 Q316 234 403 333.5 Q490 433 612 604 Z" /><glyph glyph-name="" unicode="b" d="M678 313 L678 248 Q574 182 514 182 Q481 182 444 193 Q354 79 289.5 26 Q225 -27 160 -27 Q85 -27 44.5 52 Q4 131 4 248 Q4 407 100 594.5 Q196 782 331.5 945.5 Q467 1109 594 1216 Q721 1323 766 1323 Q809 1323 809 1264 Q809 1002 137 350 Q135 332 135 279 Q135 141 209 141 Q238 141 267.5 164.5 Q297 188 358 254 Q334 308 334 334 Q334 389 379 453 Q424 517 481.5 563.5 Q539 610 565 610 Q606 610 606 551 Q606 506 582.5 443 Q559 380 514 299 Q531 285 541 278.5 Q551 272 571 272 Q617 272 678 313 ZM170 463 Q222 508 274.5 569.5 Q327 631 428 758 Q525 880 580.5 961.5 Q636 1043 664 1097 Q692 1151 692 1171 Q692 1186 684 1186 Q662 1186 592.5 1113.5 Q523 1041 434 915 Q311 741 256 653 Q201 565 170 463 Z" /><glyph glyph-name="" unicode="e" d="M176 279 L176 254 Q176 195 205 162 Q234 129 281 129 Q330 129 382.5 152 Q435 175 487 213 Q539 251 614 315 L614 254 Q501 118 402 45.5 Q303 -27 201 -27 Q112 -27 60 42 Q8 111 8 231 Q8 336 57 421.5 Q106 507 217 602 Q293 667 368 700 Q443 733 502 733 Q549 733 576.5 711.5 Q604 690 604 647 Q604 584 557 521.5 Q510 459 413.5 397.5 Q317 336 176 279 ZM186 344 Q276 379 340 431 Q404 483 434.5 530.5 Q465 578 465 600 Q465 623 444 623 Q426 623 385.5 600 Q345 577 303.5 540 Q262 503 229 453 Q196 403 186 344 Z" /><glyph glyph-name="" unicode="f" d="M573 315 L573 246 Q513 186 482 159 Q451 132 397 104 Q397 13 388 -51 Q379 -115 348 -185.5 Q317 -256 252 -340 Q188 -423 126 -467.5 Q64 -512 29 -512 Q-10 -512 -43 -448 Q-76 -384 -76 -289 Q-76 -198 -45 -97 Q-14 4 51 164 Q2 228 2 291 Q2 342 28 369 Q54 396 102 418 Q137 473 168.5 511.5 Q200 550 254 614 Q358 870 498 1114 Q537 1182 554 1205.5 Q571 1229 590 1229 Q607 1229 620 1204 Q633 1179 633 1139 Q633 1090 622.5 1049 Q612 1008 592.5 966.5 Q573 925 538.5 867 Q504 809 496 795 Q446 707 383 600 Q320 493 283.5 431 Q247 369 231 338 Q285 291 316.5 257 Q348 223 371 176 Q405 189 433 207 Q461 225 499 256.5 Q537 288 573 315 ZM274 47 L272 68 Q244 65 227 66.5 Q210 68 187.5 75 Q165 82 152.5 88 Q140 94 125 100 Q49 -86 49 -209 Q49 -270 67.5 -313 Q86 -356 111 -356 Q137 -356 176.5 -310 Q216 -264 245 -174 Q274 -84 274 47 Z" /><glyph glyph-name="" unicode="i" d="M426 762 Q401 762 378.5 781 Q356 800 356 829 Q356 873 398 927 Q440 981 485 981 Q515 981 535 962.5 Q555 944 555 909 Q555 866 514 814 Q473 762 426 762 ZM494 315 L494 242 Q397 117 313 53.5 Q229 -10 170 -10 Q88 -10 48 76 Q8 162 8 264 Q8 303 16 338.5 Q24 374 35 397 Q46 420 76 469 Q218 690 336 690 Q397 690 397 643 Q397 611 357.5 543 Q318 475 287 446 Q200 362 173.5 329 Q147 296 147 254 Q147 218 174 194 Q201 170 244 170 Q291 170 347.5 204.5 Q404 239 494 315 Z" /><glyph glyph-name="" unicode="l" d="M494 326 L494 252 Q285 -25 154 -25 Q83 -25 42.5 52.5 Q2 130 2 256 Q2 358 50 498.5 Q98 639 178.5 783.5 Q259 928 345.5 1035.5 Q432 1143 506 1186 Q536 1204 553 1204 Q574 1204 581 1185.5 Q588 1167 588 1122 Q588 983 475 780.5 Q362 578 160 367 Q150 315 150 287 Q150 223 177.5 183 Q205 143 254 143 Q279 143 308 162.5 Q337 182 369 211 Q401 240 494 326 ZM195 506 Q247 557 295.5 622 Q344 687 387 761 Q430 835 454.5 894 Q479 953 479 983 Q479 1006 463 1006 Q457 1006 440 995 Q379 945 303 799.5 Q227 654 195 506 Z" /><glyph glyph-name="" unicode="m" d="M473 178 Q611 300 710 390.5 Q809 481 865.5 533 Q922 585 965 621 Q1008 657 1020 657 Q1043 658 1064 609.5 Q1085 561 1085 532 Q1085 513 1021.5 442.5 Q958 372 926.5 330 Q895 288 895 242 Q895 215 913 198.5 Q931 182 956 182 Q985 182 1025.5 212 Q1066 242 1153 319 L1153 248 Q1066 166 995 106.5 Q924 47 871.5 17.5 Q819 -12 784 -12 Q753 -12 732 11.5 Q711 35 711 70 Q711 104 723 139 Q735 174 760 222 Q785 270 826 337.5 Q867 405 901 461 Q799 378 720 301 Q641 224 591 166.5 Q541 109 512 76 Q456 14 408 14 Q356 14 356 88 Q356 118 395 195.5 Q434 273 506 393 Q512 401 512 418 Q512 438 492 438 Q470 438 428.5 396.5 Q387 355 268 223 Q235 186 193.5 126.5 Q152 67 134 47 Q116 27 98 27 Q62 27 31 91 Q0 155 0 240 Q0 302 20.5 347 Q41 392 84 459 Q151 556 193.5 597.5 Q236 639 283 639 Q312 639 332 627.5 Q352 616 352 596 Q352 575 315.5 527 Q279 479 223 428 Q193 399 166 356.5 Q139 314 139 295 Q139 268 160 268 Q177 268 246 338 Q315 408 397.5 490.5 Q480 573 550.5 627.5 Q621 682 670 682 Q700 682 719.5 659.5 Q739 637 739 604 Q739 582 709 524.5 Q679 467 621.5 382.5 Q564 298 473 178 Z" /><glyph glyph-name="" unicode="n" d="M690 496 Q514 300 514 223 Q514 180 549 180 Q578 180 624.5 210.5 Q671 241 770 319 L770 250 Q628 110 552 48 Q476 -14 428 -14 Q346 -14 346 94 Q346 126 356 157 Q366 188 383.5 221.5 Q401 255 437 317.5 Q473 380 520 459 Q463 430 377 344 Q321 290 282 241.5 Q243 193 198.5 133.5 Q154 74 133.5 53.5 Q113 33 92 33 Q60 33 33 100 Q6 167 6 256 Q6 311 18.5 342 Q31 373 68 430 Q137 536 187 585.5 Q237 635 283 635 Q315 635 334.5 624 Q354 613 354 590 Q354 580 348 569 Q342 558 334.5 549 Q327 540 303 514 Q145 339 145 287 Q145 258 164 258 Q176 258 210.5 296.5 Q245 335 299.5 397.5 Q354 460 428.5 528 Q503 596 598 659 Q651 696 686 696 Q702 696 717.5 652 Q733 608 733 563 Q733 541 690 496 Z" /><glyph glyph-name="" unicode="o" d="M659 317 L659 250 Q593 190 553 170 Q513 150 438 154 Q308 0 209 0 Q153 0 107 37 Q61 74 33.5 138 Q6 202 6 281 Q6 345 48.5 423 Q91 501 158.5 568.5 Q226 636 303 677.5 Q380 719 446 719 Q493 719 520 704.5 Q547 690 547 664 Q547 644 524 618 Q562 610 576 591.5 Q590 573 590 524 Q590 476 567.5 403 Q545 330 506 266 L524 248 L539 248 Q556 248 572.5 256.5 Q589 265 602 274.5 Q615 284 659 317 ZM453 580 Q370 530 311 489.5 Q252 449 211 407.5 Q170 366 156 324 Q131 212 131 203 Q131 137 223 137 Q266 137 367 211 Q350 258 350 301 Q350 364 376 429.5 Q402 495 453 580 Z" /><glyph glyph-name="" unicode="p" d="M4 231 L4 301 Q144 453 245.5 587 Q347 721 406 800 Q465 879 510 911.5 Q555 944 623 944 Q657 944 657 918 Q657 897 629.5 856 Q602 815 559 772 Q502 716 447.5 631.5 Q393 547 324 416 Q378 458 448.5 515.5 Q519 573 563.5 605.5 Q608 638 651.5 657 Q695 676 739 676 Q767 676 775.5 666 Q784 656 784 627 Q784 551 747 478.5 Q710 406 641 328 Q572 250 471 158 Q506 145 543 145 Q659 145 854 322 L854 250 Q778 182 705.5 122 Q633 62 569 26 Q505 -10 451 -10 Q431 -10 408.5 -5.5 Q386 -1 367 5.5 Q348 12 318 24 Q288 36 272 41 Q240 33 236 33 Q201 33 154 61 Q121 -3 81.5 -104.5 Q42 -206 15 -266 Q-12 -326 -57 -381 Q-82 -406 -92 -406 Q-135 -406 -135 -330 Q-135 -264 -108.5 -192.5 Q-82 -121 -43.5 -57 Q-5 7 41 72.5 Q87 138 106 170 Q264 442 352 633 Q122 353 4 231 ZM410 182 Q509 286 557.5 359 Q606 432 606 471 Q606 508 569 508 Q519 508 428.5 425.5 Q338 343 242 203 Q316 211 341 208.5 Q366 206 410 182 Z" /><glyph glyph-name="" unicode="q" d="M745 678 Q745 651 731 631 Q736 623 745.5 606.5 Q755 590 760.5 579 Q766 568 766 557 Q766 543 742 502.5 Q718 462 655.5 369.5 Q593 277 532 186 L580 156 Q700 232 788 322 L788 250 Q709 154 627 78 Q635 36 635 25 Q635 -75 540 -203 Q445 -331 325 -428.5 Q205 -526 158 -526 Q84 -526 84 -395 Q84 -355 142 -256 Q200 -157 306 -6.5 Q412 144 575 369 Q379 177 329.5 130 Q280 83 232.5 49.5 Q185 16 147 16 Q109 16 76 59 Q43 102 23.5 161 Q4 220 4 264 Q4 316 16.5 350 Q29 384 66 428 Q148 531 262.5 605 Q377 679 491 714.5 Q605 750 688 750 Q745 750 745 678 ZM152 184 Q194 184 255.5 218 Q317 252 389 317 Q477 396 542.5 462.5 Q608 529 641 569.5 Q674 610 674 616 Q674 625 666 625 Q634 625 534 582.5 Q434 540 330 475.5 Q226 411 172 348 Q151 323 136 275.5 Q121 228 121 213 Q121 184 152 184 ZM444 53 Q372 -52 301.5 -185.5 Q231 -319 231 -340 Q231 -354 245.5 -352 Q260 -350 291 -336 Q356 -307 440 -199 Q497 -124 514.5 -75.5 Q532 -27 539 35 Q479 25 444 53 Z" /><glyph glyph-name="" unicode="r" d="M6 238 L6 303 Q60 367 88 412 Q56 423 41.5 439 Q27 455 27 487 Q27 523 57 578 Q87 633 131 681 Q175 729 211 743 Q225 750 238 750 Q258 750 258 731 Q258 714 227 662 Q433 694 487 694 Q508 694 516 690 Q533 681 544 648 Q555 615 555 582 Q555 561 536.5 536.5 Q518 512 473 465 Q420 408 384 341 Q348 274 348 240 Q348 193 406 193 Q467 193 618 317 L618 250 Q535 163 481 113 Q427 63 381 33.5 Q335 4 299 4 Q257 4 229 42.5 Q201 81 201 154 Q201 197 223 252 Q245 307 287.5 371.5 Q330 436 383 500 Q355 494 320 487.5 Q285 481 246 474 Q207 467 186 463 Q124 339 6 238 Z" /><glyph glyph-name="" unicode="t" d="M367 834 L410 834 Q463 929 506 968.5 Q549 1008 604 1008 Q659 1008 659 983 Q659 971 616 918 Q573 865 551 829 Q585 825 611.5 822 Q638 819 653 817 Q596 711 510 600 Q482 602 463 603.5 Q444 605 424.5 606.5 Q405 608 377 610 Q323 523 286.5 454.5 Q250 386 230.5 329 Q211 272 211 221 Q211 152 266 152 Q304 152 365.5 192.5 Q427 233 530 317 L530 250 Q260 -43 131 -43 Q86 -43 58.5 -8 Q31 27 31 82 Q31 119 46.5 170 Q62 221 102 324 Q88 312 75.5 300.5 Q63 289 52.5 279.5 Q42 270 30 259.5 Q18 249 6 238 L6 307 Q111 395 260 616 Q245 617 232 617.5 Q219 618 201 618 Q142 618 113 610 Q101 607 90.5 603.5 Q80 600 76 600 Q72 600 72 606 Q72 639 113 705 Q146 761 175.5 788 Q205 815 247.5 824.5 Q290 834 367 834 Z" /><glyph glyph-name="" unicode="u" d="M487 383 Q342 191 266.5 110 Q191 29 143 29 Q105 29 73 60.5 Q41 92 23.5 145.5 Q6 199 6 260 Q6 300 13.5 332 Q21 364 42 402.5 Q63 441 97.5 486 Q132 531 182 588 Q212 623 232.5 647 Q253 671 272.5 679.5 Q292 688 336 688 Q368 688 397 679.5 Q426 671 426 662 Q426 644 396.5 597 Q367 550 301.5 482.5 Q236 415 150 350 Q131 291 131 260 Q131 217 164 217 Q176 217 204 237.5 Q232 258 298.5 316.5 Q365 375 418 420 Q457 454 508.5 521.5 Q560 589 592 623 Q666 701 693 724.5 Q720 748 745 748 Q769 748 777.5 733 Q786 718 786 672 Q786 651 782 638 Q778 625 765.5 604.5 Q753 584 715 529 Q677 474 625 399 Q597 359 576 311.5 Q555 264 555 240 Q555 188 596 188 Q630 188 675 216 Q720 244 813 317 L813 250 Q696 142 640 93 Q584 44 543 19 Q502 -6 465 -6 Q381 -6 381 94 Q381 132 406 196.5 Q431 261 487 383 Z" /><glyph glyph-name="" unicode="w" d="M539 197 Q539 152 573 152 Q617 152 727 301 Q723 329 723 338 Q723 392 766 470 Q809 548 865 606 Q921 664 950 664 Q985 664 985 580 Q985 511 955.5 444 Q926 377 870 307 Q879 298 890 288.5 Q901 279 913.5 272.5 Q926 266 940 266 Q973 266 1024 319 L1024 248 Q945 166 887 166 Q853 166 833.5 174.5 Q814 183 784 205 Q600 -16 504 -16 Q467 -16 445.5 11.5 Q424 39 424 88 Q424 112 444 268 Q405 223 353 162 Q301 101 269 68.5 Q237 36 209.5 18 Q182 0 154 0 Q127 0 89.5 34 Q52 68 26 124.5 Q0 181 0 246 Q0 309 18 354 Q36 399 100 489 Q158 569 203 620 Q248 671 284.5 699 Q321 727 344 727 Q358 727 380.5 720.5 Q403 714 420.5 703 Q438 692 438 680 Q438 642 404.5 584 Q371 526 305 454 Q239 382 154 307 Q131 238 131 195 Q131 181 139.5 168.5 Q148 156 160 156 Q201 156 317.5 284 Q434 412 625 672 Q632 682 655 682 Q680 682 700.5 671 Q721 660 721 641 Q721 630 668.5 524 Q616 418 577.5 329.5 Q539 241 539 197 Z" /><glyph glyph-name="" unicode="x" d="M213 315 L213 551 Q176 542 142.5 519 Q109 496 71.5 462 Q34 428 25 428 Q14 428 14 457 Q14 486 73.5 559.5 Q133 633 205 695.5 Q277 758 309 758 Q328 758 342 736 Q356 714 356 676 Q356 651 355 630 Q354 609 353 574 Q352 539 350 473 Q571 709 612 709 Q624 709 631.5 699.5 Q639 690 639 676 Q639 643 585.5 574.5 Q532 506 514 506 Q489 506 475 514 L348 352 Q350 264 363.5 221 Q377 178 412 178 Q442 178 482 208 Q522 238 612 319 L612 250 Q407 -33 322 -33 Q269 -33 246.5 23 Q224 79 217 195 Q182 159 135 108 Q88 57 66.5 35.5 Q45 14 27.5 0 Q10 -14 -4 -14 Q-18 -14 -18 10 Q-18 50 24.5 120 Q67 190 86 190 Q88 190 95 188 Q102 186 102 186 L213 315 Z" /><glyph glyph-name="" unicode="&#x3002;" d="M1665 1395 Q1473 1379 1449 1171 L1449 1155 Q1465 971 1673 955 L1689 955 Q1881 971 1897 1155 L1897 1171 Q1881 1379 1681 1395 L1665 1395 ZM1681 1347 Q1849 1339 1857 1171 Q1857 1155 1857 1155 Q1849 1019 1689 1003 L1673 1003 Q1505 1011 1497 1163 Q1497 1171 1497 1171 Q1513 1331 1673 1347 L1681 1347 Z" /><glyph glyph-name="" unicode="&#xff1a;" d="M1684 1435 Q1532 1419 1516 1275 Q1532 1131 1684 1115 Q1828 1131 1844 1275 Q1828 1419 1684 1435 ZM1684 827 Q1532 811 1516 667 Q1532 531 1684 515 Q1828 531 1844 667 Q1828 811 1684 827 Z" /><glyph glyph-name="" unicode="&#xff0c;" d="M1673 1472 Q1529 1448 1505 1304 L1505 1272 Q1521 1120 1681 1096 Q1721 1072 1681 976 Q1657 920 1593 856 Q1609 840 1617 840 Q1817 944 1865 1208 L1865 1256 Q1841 1456 1689 1472 L1673 1472 Z" /><glyph glyph-name="" unicode="&#x4e00;" d="M1466 987 Q1557 987 1618 959 Q1744 933 1744 841 L1757 780 Q1744 743 1687 743 L1597 743 Q1577 743 1453 805 L1367 817 Q1287 817 924 743 Q891 723 821 723 Q776 691 543 618 Q468 618 292 780 L292 784 L296 788 L300 788 Q359 760 378 760 Q452 760 727 837 Q1043 926 1084 926 Q1433 987 1466 987 Z" /><glyph glyph-name="" unicode="&#x4e07;" d="M1255 1532 Q1334 1512 1334 1476 L1324 1439 L1329 1411 Q1308 1368 1294 1276 Q1299 1257 1324 1257 Q1412 1299 1491 1299 Q1634 1290 1634 1225 L1634 1216 Q1634 1183 1605 1155 L1289 1183 Q1259 1183 1196 987 L1156 946 L1156 936 L1176 932 Q1307 987 1349 987 L1427 987 Q1521 973 1521 904 Q1521 763 1349 573 Q1287 503 1161 503 Q1138 503 1132 382 L1152 368 Q1281 430 1422 466 Q1665 461 1698 364 L1708 252 L1708 201 Q1708 -29 1619 -82 Q1540 -176 1477 -190 L1447 -190 Q1395 -190 1280 -78 Q1243 -22 1201 1 L1186 1 L1152 -45 L1147 -50 L1132 -50 Q1064 -28 994 94 L989 117 L989 126 L1004 182 L1004 201 Q1004 229 974 229 Q679 136 679 122 L679 113 Q782 -1 782 -41 L782 -92 Q782 -148 694 -148 Q639 -148 620 -22 Q598 75 575 75 L570 75 Q495 19 462 19 L423 19 Q358 19 339 52 Q339 64 359 66 L388 61 Q459 61 556 131 L566 150 Q528 234 516 289 L521 294 L531 294 Q608 182 620 182 L625 182 Q650 182 999 317 Q1013 317 1028 457 L1009 471 Q871 464 871 438 Q861 420 841 420 Q770 420 698 555 Q675 577 595 783 Q531 828 531 848 L546 857 L551 857 Q575 841 689 811 Q699 797 723 797 L753 797 L753 811 L743 825 L743 829 Q743 839 836 866 L866 894 L866 908 Q866 917 797 960 Q784 989 772 992 L679 983 L659 987 L610 983 Q490 1027 437 1132 L423 1183 L428 1188 L442 1188 Q502 1122 580 1122 Q739 1122 758 1183 L763 1276 L733 1392 L748 1402 Q825 1382 895 1290 Q930 1247 930 1141 L930 1113 L925 1067 L940 1057 L950 1057 L1033 1141 L1127 1206 Q1250 1321 1250 1467 L1230 1471 Q1191 1442 1152 1327 L1147 1327 L1132 1341 L1132 1346 Q1132 1429 1235 1527 L1255 1532 ZM1014 1020 L1019 1015 L1033 1015 Q1112 1115 1112 1136 L1107 1141 L1102 1141 Q1019 1097 1019 1043 L1014 1020 ZM1156 792 L1156 787 L1171 773 L1216 783 L1265 773 Q1290 773 1304 848 L1289 862 Q1156 840 1156 792 ZM817 718 Q828 668 856 638 Q1033 684 1033 713 L1033 764 L1009 787 Q817 738 817 718 ZM1156 638 L1156 629 L1166 620 Q1211 630 1211 643 L1211 648 L1201 657 L1191 657 Q1164 657 1156 638 ZM940 597 L891 601 Q855 601 846 569 Q852 531 881 531 Q1009 571 1009 587 L1009 592 L994 606 L940 597 ZM1245 299 L1250 275 L1250 261 L1240 187 L1245 173 Q1235 121 1206 52 Q1206 23 1427 -41 Q1479 -24 1506 247 Q1506 364 1432 364 L1422 364 Q1245 327 1245 299 ZM1122 252 Q1125 182 1142 182 Q1185 182 1216 271 Q1216 283 1191 294 Q1122 294 1122 252 Z" /><glyph glyph-name="" unicode="&#x4e0b;" d="M1506 1406 Q1750 1406 1786 1291 L1786 1241 Q1764 1211 1726 1191 Q1542 1191 1371 1221 Q1335 1221 1171 1146 Q1061 1146 926 1076 L916 1061 L916 1051 Q964 966 1046 966 Q1140 941 1191 876 Q1210 796 1281 796 Q1479 796 1661 646 L1721 516 L1716 446 L1721 416 L1706 396 L1701 396 L1351 551 Q1255 651 1246 651 L1241 651 L1231 641 L1231 631 Q1252 581 1276 281 L1276 216 Q1276 73 1236 -134 Q1166 -189 1091 -189 Q1031 -189 991 -39 Q1086 60 1086 231 L1091 461 L1091 506 Q1091 678 951 796 Q911 892 881 1006 L861 1016 Q800 1016 626 956 L531 946 Q360 989 311 1026 L221 1076 L221 1086 Q221 1099 391 1116 Q556 1171 581 1171 Q874 1261 1191 1331 Q1191 1343 1411 1396 L1506 1406 Z" /><glyph glyph-name="" unicode="&#x4e0d;" d="M1438 1309 Q1662 1279 1662 1220 Q1662 1202 1560 1121 L1545 1121 L1399 1134 Q1224 1121 1224 1093 L1224 1090 Q1241 1090 1248 1022 L1248 1018 Q1248 987 1121 812 L1121 794 Q1160 580 1180 529 L1175 524 L1170 524 L1209 219 L1209 196 Q1209 121 1019 -134 L970 -153 Q914 -141 848 -76 L858 -68 L912 -76 Q955 -50 975 179 L980 214 L975 232 L980 260 L965 435 L951 435 Q934 412 834 161 Q717 -54 561 -54 Q485 -18 434 44 Q434 58 517 89 Q619 156 673 255 L668 269 Q668 607 809 960 L795 963 Q776 963 566 861 L507 851 Q440 851 341 950 Q250 1073 244 1125 L259 1134 L263 1134 Q354 1085 463 1085 L497 1085 Q557 1085 697 1130 Q812 1161 843 1161 Q1281 1291 1321 1291 Q1379 1309 1438 1309 ZM980 1086 L980 1081 Q980 1052 1014 1029 L1024 1029 Q1040 1032 1063 1090 Q1059 1105 1043 1109 Q980 1101 980 1086 ZM892 813 Q839 653 824 577 L829 563 L839 563 Q852 563 912 756 L917 808 L912 813 L892 813 ZM1258 582 Q1319 582 1657 464 Q1838 374 1838 299 Q1862 130 1862 50 L1847 40 Q1774 118 1618 153 Q1520 250 1419 426 Q1305 551 1248 563 L1243 568 L1243 572 Q1243 582 1258 582 Z" /><glyph glyph-name="" unicode="&#x4e14;" d="M1257 1386 Q1359 1386 1484 1225 L1498 1184 Q1435 561 1424 561 L1433 494 L1424 463 L1433 423 L1424 400 Q1443 243 1475 243 L1553 243 Q1771 209 1771 131 L1789 42 Q1770 6 1632 6 L1599 6 Q1463 60 1414 60 L1299 60 Q955 -2 809 -48 Q766 -48 693 -88 Q498 -169 462 -169 Q382 -169 272 -79 L272 -43 Q272 -34 420 -12 L790 100 L804 127 L799 198 L804 257 Q801 288 795 288 L799 310 L799 351 L785 620 Q785 673 809 786 L772 817 L772 826 Q818 867 818 960 L813 1059 L822 1104 Q822 1132 624 1148 L591 1153 L563 1157 L559 1162 L559 1175 Q559 1185 642 1198 Q971 1293 1063 1328 Q1200 1386 1257 1386 ZM966 929 L970 924 L1026 929 L1072 929 Q1216 893 1216 857 Q1176 776 1040 660 Q1001 639 975 593 Q982 575 989 575 L994 575 Q1045 575 1192 633 Q1276 655 1276 678 L1276 682 L1271 705 L1280 759 L1276 803 L1285 875 L1280 920 L1290 1108 Q1273 1126 1248 1126 L1248 1131 Q1074 1063 980 1063 Q966 1046 966 929 ZM1169 440 Q1231 271 1253 252 L1262 252 L1271 261 L1271 310 L1276 391 Q1276 441 1239 467 L1229 467 Q1169 467 1169 440 ZM1049 431 L975 436 Q938 436 938 310 L938 302 Q938 154 970 154 L984 154 Q1192 189 1192 225 Q1144 440 1105 440 L1100 440 L1049 431 Z" /><glyph glyph-name="" unicode="&#x4e1c;" d="M947 1512 Q1071 1512 1192 1372 L1192 1352 Q1192 1338 1142 1262 L1137 1242 Q1157 1225 1212 1207 Q1242 1187 1242 1162 L1242 1157 Q1242 1133 1132 1107 Q1117 1107 1107 962 L1127 952 Q1270 987 1452 1012 Q1518 1012 1607 917 Q1637 893 1637 867 L1637 862 Q1637 826 1537 772 L1362 617 Q1362 592 1457 592 L1487 527 L1492 522 L1492 512 Q1492 484 1252 457 Q1127 430 1127 412 L1127 397 L1137 302 L1137 277 Q1137 240 1397 222 Q1428 208 1592 187 Q1777 124 1777 37 L1777 22 Q1777 7 1692 2 Q1692 -7 1657 -13 Q1448 12 1242 77 L1172 122 Q1132 122 1132 -108 Q1115 -313 1052 -313 L1037 -313 Q1012 -313 977 -268 L812 -133 L772 -113 Q751 -113 692 -143 L477 -123 L467 -108 L592 -28 Q774 98 932 312 L937 332 L937 337 Q937 347 922 347 Q827 282 682 282 L677 277 L672 277 Q593 277 457 412 L467 422 L482 422 Q566 367 607 367 L662 367 Q682 377 682 397 Q557 521 557 717 Q557 896 687 977 L777 1052 L777 1062 Q777 1075 667 1092 Q552 1114 552 1127 L552 1132 L567 1147 L652 1147 Q896 1147 927 1207 Q927 1377 862 1377 Q748 1424 737 1437 L737 1442 Q737 1459 947 1512 ZM637 802 L662 787 Q931 883 942 907 L947 912 L947 917 Q947 1072 912 1072 Q647 954 647 857 L637 802 ZM1102 762 Q1102 748 1127 737 Q1147 747 1182 747 L1237 727 Q1262 727 1322 862 Q1322 875 1297 887 Q1107 842 1107 817 L1102 762 ZM792 747 L742 752 L717 747 L672 752 L662 737 Q711 607 757 607 Q957 658 957 697 L957 722 Q957 752 927 767 Q860 747 792 747 ZM1117 617 L1117 577 L1137 557 Q1197 557 1222 667 L1202 677 Q1117 655 1117 617 ZM797 552 Q815 552 832 442 L837 437 L842 437 Q957 464 957 512 L962 562 Q962 577 932 592 Q797 582 797 557 L797 552 ZM952 42 Q908 -27 797 -68 L787 -83 L787 -98 Q787 -115 887 -123 L927 -118 L957 -118 Q982 -106 982 -78 L982 12 Q982 42 952 42 Z" /><glyph glyph-name="" unicode="&#x4e2a;" d="M578 1257 L596 1257 L678 1231 Q732 1231 778 1175 L792 1102 L792 1084 Q792 1037 573 726 Q537 684 537 674 Q605 591 605 557 Q683 261 683 -120 Q683 -201 587 -233 Q544 -250 509 -250 L500 -250 Q459 -224 459 -159 L459 -108 Q459 -60 528 290 L532 320 L528 333 L532 406 Q532 576 487 605 L473 605 Q440 527 259 376 Q207 359 181 359 L172 372 L172 380 Q264 488 404 786 Q505 1028 528 1102 L514 1115 L404 1093 L400 1097 L400 1110 Q506 1197 528 1240 Q551 1257 578 1257 ZM1376 1214 L1376 1210 L1380 1214 Q1479 1214 1599 1153 Q1705 1115 1749 1032 L1749 1024 L1731 752 Q1763 333 1763 22 L1763 -4 Q1763 -151 1731 -151 Q1706 -181 1681 -181 L1676 -181 Q1634 -181 1567 -86 Q1510 -47 1494 -47 L1207 -77 L1011 -51 Q994 -51 965 -120 Q931 -142 915 -142 L906 -142 Q792 -54 792 35 Q769 356 760 786 Q747 786 742 821 Q758 863 769 864 L774 864 Q821 810 929 756 Q1007 674 1020 674 Q1129 737 1129 765 L1134 795 L1129 855 L1134 899 Q1114 989 1084 989 Q912 950 879 950 L874 955 L874 963 Q874 970 1102 1080 Q1267 1193 1376 1214 ZM1230 1015 Q1230 812 1262 812 L1262 808 L1266 812 L1284 812 L1303 808 L1307 812 L1312 812 Q1332 804 1334 795 L1334 786 Q1334 747 1257 713 Q1243 713 1230 687 Q1232 648 1239 648 L1230 549 L1252 536 Q1295 562 1366 562 Q1485 544 1485 467 Q1490 467 1494 402 Q1483 372 1417 285 Q1417 266 1444 247 L1453 229 Q1453 155 1307 130 L1148 87 L1134 87 L1129 91 Q1111 87 1111 74 Q1132 22 1152 22 Q1233 61 1303 70 Q1303 89 1494 104 L1526 104 Q1558 104 1558 134 L1558 285 Q1558 450 1535 605 L1540 631 Q1529 754 1517 799 L1521 847 L1521 860 Q1488 1042 1471 1058 L1467 1058 Q1230 1033 1230 1015 ZM1002 566 L1002 475 Q1002 452 1015 437 L1015 424 L1006 411 Q1034 334 1034 294 Q1060 182 1075 182 L1084 182 Q1280 341 1280 385 Q1298 399 1298 419 L1293 424 L1280 424 Q1176 355 1161 355 Q1059 375 1029 424 Q1029 437 1088 441 L1097 454 L1097 592 L1079 609 L1075 609 Q1002 609 1002 566 ZM988 139 L988 130 L983 130 Q993 -21 1011 -21 L1015 -21 Q1079 -16 1079 9 Q1006 108 1006 139 L988 139 Z" /><glyph glyph-name="" unicode="&#x4e3b;" d="M1025 1583 Q1118 1491 1302 1491 Q1489 1435 1489 1308 L1489 1274 Q1489 1206 1375 1183 Q1269 1241 1114 1291 Q1098 1308 1090 1408 Q1030 1466 1009 1558 L1009 1566 L1025 1583 ZM1206 1079 Q1313 1035 1313 923 Q1333 886 1344 797 Q1344 783 1467 777 Q1533 745 1533 692 Q1533 598 1395 516 L1369 480 L1369 420 Q1369 387 1462 229 Q1557 119 1651 58 L1661 27 L1661 2 Q1632 -93 1543 -93 L1416 -83 L1369 -83 L996 -163 L832 -189 Q674 -175 674 -93 L674 -78 Q674 -41 746 42 L751 48 Q766 48 766 63 L776 63 L781 48 Q710 3 710 -48 Q721 -73 756 -73 Q947 -73 1226 42 Q1318 42 1318 138 L1344 445 L1339 450 L1323 450 Q1144 300 1144 264 Q1128 171 1047 68 Q1047 15 965 12 Q933 12 853 93 Q829 93 812 158 Q679 336 679 370 L679 385 L689 385 Q870 178 879 178 L899 178 Q965 178 1022 299 Q1068 372 1098 500 L1088 521 L930 500 L761 536 L700 536 L638 531 L633 536 L633 546 Q633 563 766 596 Q818 596 1063 661 Q1160 688 1160 757 L1165 858 Q1165 943 1104 943 Q1080 943 976 888 Q953 888 848 828 L781 822 Q739 822 638 938 Q587 1034 587 1059 L592 1064 L597 1064 Q648 968 705 968 L756 963 Q792 963 1124 1064 L1206 1079 ZM797 78 L802 73 L802 68 L786 68 L797 78 Z" /><glyph glyph-name="" unicode="&#x4e50;" d="M1019 1557 Q1128 1557 1149 1467 L1149 1427 Q1149 1392 1089 1252 Q1089 1231 1194 1207 Q1228 1186 1269 1087 L1274 1082 L1299 1082 Q1479 1216 1504 1322 Q1519 1337 1519 1377 Q1519 1386 1494 1407 Q1394 1361 1319 1307 L1304 1307 L1294 1317 Q1294 1390 1469 1482 L1529 1497 L1534 1497 Q1587 1497 1604 1387 L1584 1297 L1584 1287 L1619 1232 Q1619 1112 1529 907 L1524 882 L1539 867 L1609 867 Q1754 848 1754 777 Q1718 657 1569 557 Q1421 464 1319 417 L1324 392 Q1681 447 1764 447 Q1819 447 1859 327 L1859 302 Q1837 222 1704 222 Q1435 247 1284 277 L1249 277 Q1159 277 1159 232 Q1179 154 1179 82 Q1149 -363 1039 -363 Q980 -363 864 -168 L839 -163 L834 -163 Q708 -283 674 -283 L664 -283 Q564 -235 564 -123 Q564 -46 689 -33 L699 -33 L864 -68 L894 -68 L909 -83 L904 -113 Q921 -153 994 -153 Q1044 -153 1054 37 L1059 117 Q1052 222 1009 222 Q801 159 504 -13 Q211 -148 154 -148 L144 -148 Q73 -148 59 -58 Q59 -2 109 42 L124 42 L139 27 L134 2 Q134 -23 159 -23 Q348 25 709 202 Q954 295 964 312 L969 317 L969 322 L959 357 Q989 457 1049 457 L1124 447 L1139 472 Q1117 632 1094 632 L1084 632 L999 542 L984 542 Q971 548 919 617 L914 622 L909 622 Q885 612 809 467 Q659 226 594 222 Q499 222 479 362 Q479 442 614 602 Q674 694 674 837 L674 877 L659 892 L654 892 Q633 875 579 732 Q527 652 489 652 Q439 652 429 782 Q439 860 584 1112 L599 1162 Q594 1293 584 1332 Q607 1357 644 1357 Q749 1357 749 1247 Q734 1166 689 1037 Q689 1013 744 967 L759 937 Q759 761 669 532 L664 502 L679 492 Q909 667 909 877 Q920 877 924 1022 Q884 1173 884 1212 Q884 1249 974 1417 L979 1437 L974 1522 Q989 1557 1019 1557 ZM1024 1062 L1024 1052 Q1024 1025 1049 1012 L1079 1012 L1139 1007 L1154 1032 Q1144 1132 1114 1132 Q1024 1102 1024 1062 ZM1344 912 L1309 912 Q1289 904 1289 877 L1289 787 L1304 772 L1309 772 Q1452 914 1464 992 L1469 1017 L1469 1037 L1454 1037 Q1382 912 1344 912 ZM1029 907 L1029 877 L1039 867 L1049 867 Q1069 874 1069 912 L1049 927 L1029 907 ZM1119 787 L1119 777 Q1154 777 1154 812 L1149 817 L1134 817 Q1119 812 1119 787 ZM1349 577 L1344 577 L1289 642 Q1266 642 1254 537 Q1246 537 1244 492 L1259 482 Q1330 493 1524 677 L1544 712 L1544 727 L1534 727 L1534 732 Q1525 732 1399 602 Q1365 577 1349 577 ZM1334 52 L1449 52 Q1663 52 1704 -63 L1709 -88 L1709 -108 Q1709 -181 1589 -198 Q1506 -228 1399 -228 L1354 -228 L1339 -213 Q1339 -184 1444 -113 L1464 -83 Q1464 -55 1334 7 L1319 27 L1319 37 L1334 52 ZM674 -108 L674 -113 L684 -128 L764 -108 L764 -93 L754 -83 L734 -83 Q695 -83 674 -108 Z" /><glyph glyph-name="" unicode="&#x4e8b;" d="M1049 1525 Q1203 1511 1229 1450 L1229 1440 L1224 1390 L1254 1375 Q1488 1480 1594 1480 Q1714 1456 1714 1400 L1714 1395 Q1672 1332 1479 1300 L1324 1285 L1319 1290 L1319 1305 L1344 1330 L1344 1340 Q1214 1319 1214 1280 Q1214 1215 1249 1215 Q1312 1250 1359 1250 Q1464 1250 1529 1135 L1529 1120 Q1529 1110 1434 1005 L1439 955 Q1408 900 1249 900 L1224 875 Q1224 820 1269 820 Q1363 840 1409 840 L1489 840 Q1714 840 1714 715 Q1714 666 1659 600 Q1584 527 1584 495 L1619 410 L1619 405 Q1619 340 1534 340 Q1534 333 1489 330 L1279 370 Q1238 370 1219 90 Q1198 -32 1159 -170 Q1087 -290 1029 -290 L1019 -290 Q942 -290 814 -205 L814 -195 L824 -180 L944 -195 Q1056 -195 1084 250 Q1084 270 1059 285 Q1017 277 839 200 L799 190 L674 190 Q600 190 549 250 L549 255 L564 270 L634 270 Q794 270 939 345 Q1084 398 1084 440 Q1084 460 1064 470 Q874 410 819 410 L809 410 Q705 410 629 470 L629 475 Q629 493 819 505 Q1050 570 1084 615 L1084 625 L1069 640 L1064 640 Q897 595 784 595 L739 595 Q665 600 659 620 L659 625 Q659 641 769 660 Q1073 765 1084 785 L1094 800 L1094 820 Q1094 870 1054 870 Q896 810 834 810 L799 815 L779 790 L784 750 Q769 715 739 715 L704 715 Q604 715 589 905 Q589 1059 659 1100 L664 1100 L674 1080 Q674 885 714 885 L719 885 Q736 885 744 940 L739 1020 Q739 1078 779 1095 L804 1090 L864 1090 Q1054 1119 1054 1160 Q1041 1265 1014 1265 Q761 1215 639 1155 L374 1040 L314 1025 Q217 1025 174 1105 L174 1110 L199 1125 Q238 1105 264 1105 Q294 1105 814 1270 Q989 1310 989 1335 L989 1345 Q960 1439 879 1475 L864 1490 L864 1495 L874 1505 L939 1505 L1049 1525 ZM1209 1090 Q1221 1055 1244 1055 Q1294 1098 1294 1130 L1274 1150 Q1209 1126 1209 1090 ZM779 910 L779 905 Q779 877 809 860 Q1074 978 1074 1000 L1074 1050 L1054 1070 L1039 1070 L799 965 Q779 938 779 910 ZM1249 675 Q1264 660 1299 660 Q1334 633 1334 620 L1309 555 Q1338 505 1379 505 Q1424 505 1489 710 L1489 715 Q1489 744 1459 755 Q1282 710 1254 695 L1249 675 Z" /><glyph glyph-name="" unicode="&#x4ed6;" d="M577 1455 Q605 1455 672 1415 Q747 1397 747 1320 L752 1275 Q658 1063 602 995 L552 895 Q527 861 527 845 L572 750 L577 695 L577 660 L602 635 L837 735 Q922 787 922 845 Q922 938 837 955 L837 960 Q859 990 902 990 Q1027 990 1027 860 L1022 855 L1042 840 Q1187 874 1187 985 L1192 1035 L1192 1045 Q1192 1210 1137 1210 L1137 1220 Q1137 1233 1207 1250 L1212 1250 Q1322 1223 1322 1155 L1322 1130 L1307 1010 L1332 1000 Q1433 1158 1527 1180 L1532 1180 Q1543 1178 1597 1090 Q1672 1025 1672 995 Q1632 806 1577 670 Q1467 430 1382 430 Q1359 430 1277 485 L1262 485 Q1252 482 1202 405 L1177 400 L1172 400 Q1153 400 1147 475 L1177 655 Q1172 675 1152 675 L1012 570 L997 520 L1007 480 L1002 455 Q1042 250 1137 250 L1202 240 L1252 245 L1272 240 Q1387 240 1667 310 Q1732 336 1732 410 L1732 420 Q1732 487 1657 570 L1657 585 L1662 585 Q1810 527 1892 405 L1912 335 L1912 310 Q1912 193 1747 160 L1572 140 L1527 140 L1467 160 L1412 160 L1192 125 Q972 177 972 235 Q932 264 912 495 Q892 513 772 525 L602 620 Q602 610 587 610 L582 595 Q595 595 627 140 Q627 -63 562 -95 L472 -130 Q440 -130 437 -55 L437 -35 Q437 41 492 320 Q517 552 517 650 Q503 770 477 770 Q463 769 407 670 Q295 535 227 535 L217 550 L217 560 Q362 761 527 1255 Q530 1285 537 1285 L522 1305 L517 1305 L442 1290 L432 1305 L432 1310 Q526 1393 542 1440 Q560 1455 577 1455 ZM1302 780 L1307 700 Q1295 535 1277 535 Q1284 515 1292 515 L1297 515 Q1394 515 1472 815 L1477 910 L1477 930 L1467 940 L1457 940 L1307 795 L1302 780 Z" /><glyph glyph-name="" unicode="&#x4f53;" d="M1363 1539 L1382 1539 Q1474 1506 1474 1412 L1474 1359 L1469 1353 Q1469 1340 1493 1327 Q1512 1337 1546 1337 L1575 1337 Q1753 1295 1753 1215 L1753 1205 Q1704 1024 1585 796 Q1527 773 1527 722 Q1527 659 1455 632 Q1164 632 1094 547 L1055 504 L1055 499 Q1055 464 1113 425 L1262 499 Q1376 563 1469 563 Q1543 563 1589 478 Q1589 456 1488 361 L1488 356 L1508 324 L1508 319 Q1508 302 1421 282 L1416 276 L1416 266 L1426 255 L1469 255 Q1594 226 1594 165 Q1561 80 1281 -26 L1267 -26 L1267 -42 Q1267 -53 1281 -53 Q1507 0 1546 0 Q1710 -43 1710 -63 L1710 -69 Q1710 -92 1522 -158 Q1418 -174 1253 -179 Q1065 -149 1065 -58 Q1065 0 1176 0 L1344 128 L1344 138 L1339 138 Q1312 138 1233 59 L1214 53 L1214 59 L1209 53 L1156 53 Q1096 53 1070 138 L1070 154 Q1108 204 1108 229 L1060 287 L1022 409 L1017 451 L1017 457 Q1017 548 1127 605 L1127 616 Q1127 636 1007 642 L1002 648 L1002 658 L1012 669 L1022 669 Q1124 669 1363 770 L1368 770 L1464 764 L1474 780 Q1474 810 1435 844 L1330 839 L1180 839 L1176 844 L1171 844 Q1147 814 1147 770 L1127 748 L1103 748 Q1056 786 983 1019 L978 1024 L964 1024 Q927 990 906 945 Q916 920 925 918 L959 918 Q986 918 993 892 Q993 799 882 786 Q805 729 805 695 L853 642 L892 489 Q930 489 945 197 Q959 3 974 -53 L969 -69 L974 -100 L974 -127 Q974 -169 940 -201 L916 -201 Q752 -59 752 -5 L733 -5 L733 -15 L728 -15 Q738 -74 738 -169 Q738 -225 694 -233 Q627 -233 617 -58 L617 -47 Q617 259 733 690 L733 701 L723 701 Q712 680 512 473 Q437 213 372 213 Q213 213 194 351 Q194 390 266 483 L483 775 L502 833 L502 966 L507 1125 Q507 1160 468 1258 L473 1258 Q519 1248 632 1077 L651 1077 Q714 1158 714 1258 Q714 1285 661 1321 L661 1332 L738 1369 Q851 1512 906 1512 L911 1512 L983 1428 L983 1396 L964 1279 Q980 1195 998 1162 Q1015 1146 1031 1146 Q1180 1194 1180 1242 Q1155 1369 1123 1369 L1118 1375 Q1065 1388 1065 1401 L1065 1406 Q1122 1449 1204 1449 Q1253 1429 1253 1380 L1243 1295 Q1243 1265 1267 1247 Q1378 1306 1378 1385 L1378 1417 Q1378 1483 1354 1523 L1354 1528 L1363 1539 ZM771 1274 L786 1231 L786 1221 L771 1104 L786 1093 L795 1093 Q824 1093 834 1274 Q827 1311 815 1311 L800 1311 Q771 1296 771 1274 ZM1445 1173 Q1445 1153 1498 1130 L1503 1125 L1503 1099 L1440 1051 Q1430 1039 1426 993 Q1426 977 1440 977 L1445 971 L1445 966 Q1537 966 1575 1247 L1551 1263 Q1445 1240 1445 1173 ZM1257 1125 L1257 1099 Q1257 1087 1281 1083 Q1357 1129 1363 1152 L1363 1168 Q1350 1194 1334 1194 Q1257 1166 1257 1125 ZM1113 1067 L1113 1062 Q1113 1035 1142 1019 Q1200 1035 1200 1072 Q1200 1095 1176 1115 Q1117 1083 1113 1067 ZM1277 945 Q1281 924 1306 924 Q1339 939 1339 971 L1339 993 L1325 1008 Q1277 988 1277 945 ZM1142 939 Q1147 865 1166 865 L1171 865 Q1209 865 1219 929 Q1209 961 1166 961 Q1152 961 1152 945 L1147 939 L1142 939 ZM690 871 Q695 828 723 828 L771 886 Q766 913 757 913 Q708 913 690 871 ZM386 515 L401 504 L574 685 L574 701 L516 764 L512 764 Q472 764 406 595 Q386 558 386 515 ZM786 558 L781 552 L781 547 L795 526 L805 542 L805 552 L786 558 ZM1166 345 Q1166 313 1195 303 Q1256 303 1368 430 L1358 441 Q1166 376 1166 345 ZM738 414 L738 398 L762 398 L762 414 L738 414 ZM829 160 Q829 147 757 53 L757 38 Q806 -21 844 -21 Q866 -10 868 0 Q868 70 853 160 L829 160 Z" /><glyph glyph-name="" unicode="&#x4f5c;" d="M1294 1545 L1319 1545 Q1419 1520 1419 1485 Q1454 1445 1454 1345 Q1454 1290 1429 1170 L1434 1155 L1444 1155 Q1590 1255 1689 1255 Q1783 1255 1829 1165 L1829 1155 Q1829 1120 1639 1080 Q1479 1016 1479 995 Q1499 938 1539 745 L1559 740 Q1567 759 1664 780 Q1759 780 1759 705 Q1769 705 1769 645 L1769 640 Q1769 569 1659 455 Q1574 335 1574 310 L1554 265 Q1554 251 1579 240 Q1658 270 1714 270 L1734 270 Q1770 270 1804 215 L1789 165 L1799 125 Q1799 60 1744 60 L1709 60 Q1664 60 1584 95 Q1563 95 1544 20 Q1521 -50 1484 -50 Q1414 2 1414 65 Q1406 65 1389 140 L1419 650 L1419 670 Q1419 754 1399 945 L1399 950 L1389 960 L1384 960 Q1278 850 1249 850 L1229 850 Q1197 850 1174 950 L1264 1120 Q1304 1242 1304 1345 L1304 1390 Q1304 1492 1234 1510 L1234 1520 Q1234 1536 1294 1545 ZM719 1405 L744 1405 Q874 1380 874 1315 Q874 1190 504 780 L309 585 L304 585 Q292 585 289 605 Q348 721 514 970 L624 1155 Q689 1262 689 1315 Q684 1331 669 1335 L584 1310 L574 1325 Q677 1405 719 1405 ZM604 760 Q639 760 699 570 Q754 315 754 270 L754 195 Q717 -147 674 -225 Q655 -276 604 -310 L584 -310 Q534 -310 534 -235 Q669 185 669 295 Q669 527 584 755 L589 760 L604 760 ZM1549 550 L1549 485 L1554 435 L1574 435 L1614 600 L1614 635 L1599 650 L1589 650 Q1549 616 1549 550 Z" /><glyph glyph-name="" unicode="&#x4fd7;" d="M554 1279 L565 1279 Q722 1231 722 1170 L728 1107 L630 896 L506 709 L506 705 L549 626 Q614 220 614 -21 L619 -26 L641 -26 Q843 304 1053 930 L1069 1024 Q1056 1024 1042 1073 L1058 1087 L1064 1087 Q1210 1039 1210 935 L1188 827 L1188 818 Q1199 798 1264 778 Q1415 659 1562 454 Q1661 357 1822 312 Q1912 287 1974 214 L1969 179 L1969 151 L1947 126 Q1833 126 1649 209 Q1601 232 1524 317 L1519 317 Q1500 317 1497 243 Q1467 171 1405 96 L1405 82 L1432 -11 Q1432 -79 1308 -79 Q1232 -127 1178 -138 Q1154 -138 1091 -85 L1085 -85 L1047 -109 Q988 -109 917 96 L912 136 L890 136 Q665 -227 495 -227 L462 -227 Q419 -211 419 -104 L419 -89 Q419 -16 495 342 L500 449 Q486 631 457 631 L451 631 L370 523 Q255 406 208 406 L202 406 L186 420 Q186 445 397 812 Q489 1044 506 1127 L484 1141 L419 1127 L414 1131 L414 1136 Q414 1155 489 1230 Q517 1279 554 1279 ZM1486 1181 Q1528 1181 1627 1024 L1633 989 L1633 935 Q1633 887 1356 812 L1340 832 L1427 1033 Q1427 1067 1356 1078 L1356 1082 Q1413 1153 1486 1181 ZM988 964 L993 950 L847 621 Q822 602 798 602 Q706 642 706 788 L701 827 Q716 950 728 950 L733 950 Q746 950 760 788 L777 778 L787 778 Q939 897 972 955 L988 964 ZM982 302 L1004 282 Q1038 282 1150 391 Q1287 484 1351 484 L1378 479 L1400 484 L1400 488 Q1376 558 1183 769 Q1150 769 1102 602 Q982 337 982 302 ZM1329 385 Q1126 190 1102 190 L1096 190 Q1046 190 972 263 L966 263 Q939 254 939 224 Q1026 168 1026 160 Q1058 119 1096 -21 L1118 -21 Q1118 0 1297 209 Q1356 337 1356 376 L1329 385 Z" /><glyph glyph-name="" unicode="&#x5177;" d="M1130 1480 L1135 1480 Q1299 1480 1360 1265 L1350 1200 L1350 1110 L1320 800 L1335 640 L1330 525 L1355 515 Q1429 560 1495 560 L1570 560 Q1649 560 1710 490 L1715 470 L1715 445 Q1715 386 1505 365 Q1340 355 1340 330 L1310 -20 Q1327 -49 1395 -60 Q1590 -112 1590 -220 Q1577 -251 1545 -270 L1540 -270 L1460 -265 L1365 -270 L1295 -270 L1280 -255 Q1393 -196 1420 -160 L1420 -155 Q1420 -116 1335 -70 L1305 -60 L1250 -80 Q1180 -52 1180 30 Q1170 140 1140 195 L1190 225 L1195 245 L1195 285 L1175 305 Q1023 237 855 100 Q775 43 760 5 Q615 -156 610 -205 L625 -210 L975 -100 L980 -105 L980 -110 L825 -230 Q744 -321 630 -370 Q602 -410 570 -410 Q531 -410 435 -280 L430 -265 Q463 -147 540 -100 Q688 -41 780 60 Q733 115 705 115 Q666 85 520 55 Q462 55 405 105 L405 120 Q405 136 645 200 Q700 225 700 245 Q680 364 680 585 L680 620 Q700 1385 715 1385 Q732 1403 880 1425 Q937 1449 1130 1480 ZM890 1190 L895 1160 L885 1060 L885 1055 L905 1035 L960 1040 Q1140 1007 1140 935 Q1149 935 1155 890 Q1155 837 1085 775 L1085 760 L1160 690 L1190 565 L1215 565 L1215 690 Q1215 750 1205 750 L1220 1020 Q1220 1270 1175 1270 Q959 1229 905 1210 L890 1190 ZM895 1020 Q895 1005 880 1005 L875 985 L885 885 L910 885 L930 975 Q930 999 895 1020 ZM865 840 L865 795 L890 795 L890 845 L865 840 ZM860 705 L865 700 L865 695 L860 690 L875 650 L875 635 L860 565 L860 365 Q860 320 890 320 Q1176 440 1205 460 L1210 485 L1210 495 L1205 520 L1180 520 Q1125 435 995 435 Q975 440 975 455 Q975 464 1060 535 L1060 545 Q1060 591 965 670 Q929 734 895 760 L890 760 Q876 760 860 705 Z" /><glyph glyph-name="" unicode="&#x529f;" d="M1226 1330 L1247 1330 Q1319 1292 1357 1167 L1383 986 L1388 986 L1483 1032 L1545 1042 Q1708 1015 1708 995 Q1797 947 1823 897 Q1823 883 1849 856 L1849 846 Q1817 774 1817 725 L1823 697 Q1791 650 1791 614 L1796 576 Q1777 541 1760 441 L1718 274 L1671 167 L1676 143 Q1671 126 1639 97 Q1579 -7 1478 -47 Q1459 -47 1409 -85 L1399 -85 Q1314 -4 1300 41 Q1278 41 1247 139 L1263 157 L1404 143 Q1467 174 1467 237 Q1519 288 1519 371 Q1577 474 1577 665 L1588 734 Q1565 879 1514 879 Q1373 851 1373 818 Q1337 513 1284 357 L1180 79 Q1073 -49 1054 -61 Q988 -103 944 -103 L929 -103 Q842 -103 772 -43 L772 -37 Q772 -26 850 -5 Q957 60 991 139 L1007 181 L1002 185 L908 176 L839 181 L541 60 Q446 32 394 32 L384 32 Q345 32 154 101 L154 111 Q154 125 207 125 L505 251 Q562 271 572 288 L567 344 L567 376 L583 665 L583 669 Q581 679 557 688 Q557 676 473 655 Q370 655 243 739 Q212 777 212 795 L222 804 L279 795 L316 795 Q468 795 703 958 Q716 958 802 1023 L818 1023 Q902 1007 902 972 Q888 781 818 781 Q789 760 751 753 L735 734 L735 725 L740 725 L730 562 L735 460 L730 381 L756 367 Q802 390 855 390 Q967 390 1012 316 Q1024 260 1033 260 L1054 260 Q1054 298 1148 507 Q1211 712 1211 744 L1195 753 Q1093 706 1065 706 L1017 706 Q902 718 902 734 L902 739 Q1020 814 1221 911 L1237 930 L1206 1316 L1226 1330 Z" /><glyph glyph-name="" unicode="&#x5357;" d="M797 1474 Q900 1322 957 1321 Q997 1321 1092 1194 Q1137 1158 1167 1154 Q1195 1113 1222 1113 Q1266 1136 1397 1145 Q1597 1145 1732 1064 Q1752 1002 1752 956 Q1731 937 1702 937 L1592 937 Q1438 996 1417 996 L1157 992 Q1121 992 1102 852 L1117 838 L1242 861 L1287 852 L1347 861 Q1512 861 1642 681 Q1657 657 1657 626 L1597 261 Q1567 66 1477 -90 Q1446 -113 1432 -113 Q1408 -103 1257 67 Q1242 67 1177 162 L1162 162 Q1140 162 1127 -45 L1102 -72 L1087 -72 Q1037 -57 1037 54 L1032 58 Q1019 103 1012 103 L1007 103 L917 72 L732 103 Q718 115 682 117 L657 117 Q635 107 602 27 L557 -13 L542 -13 Q496 -13 447 212 L447 216 L462 369 L457 451 L462 518 Q417 674 417 708 Q426 728 437 730 L442 730 Q495 681 572 631 L577 653 L567 708 L572 712 L587 712 L617 690 L627 690 Q653 690 732 730 Q947 774 947 802 L947 852 L917 883 L917 933 L897 947 Q639 870 577 870 Q568 856 532 856 L527 856 Q407 885 297 978 L312 983 L352 974 Q452 974 792 1046 Q917 1067 917 1086 L922 1091 L922 1095 Q817 1188 817 1294 Q807 1313 782 1469 L787 1474 L797 1474 ZM1197 640 Q1229 640 1252 523 Q1262 514 1337 509 Q1362 495 1367 469 Q1367 427 1277 387 Q1162 363 1162 315 L1162 306 L1187 293 L1252 302 L1317 302 Q1397 302 1397 261 L1397 257 Q1364 214 1272 189 L1267 185 L1267 167 Q1360 121 1387 121 Q1432 136 1432 279 Q1438 279 1452 433 Q1452 662 1402 662 Q1354 681 1297 681 Q1197 665 1197 649 L1197 640 ZM937 581 L937 568 Q951 568 1062 464 L1072 464 L1072 460 Q1085 462 1097 482 L1097 496 Q1097 604 1032 604 L1017 604 Q937 593 937 581 ZM622 550 L617 545 L617 527 Q628 387 677 387 L772 378 L782 378 L907 414 L907 433 Q894 449 817 478 Q753 545 722 545 L682 545 L622 550 ZM652 360 L652 329 Q652 225 642 176 Q651 155 662 153 L712 153 Q855 153 1007 234 L1017 261 Q1009 288 982 288 L947 288 Q824 288 667 365 L652 360 Z" /><glyph glyph-name="" unicode="&#x5373;" d="M853 1491 L888 1486 L903 1491 Q981 1491 1078 1311 L1078 1306 Q1018 1046 1018 1011 L1013 976 L1018 906 L1008 836 Q1021 741 1043 741 L1048 721 L1043 686 L1048 646 L1043 611 L1048 586 Q1041 561 1013 561 L938 561 Q916 553 863 416 Q765 268 698 186 Q651 140 478 61 L418 56 Q363 120 363 181 Q393 225 393 246 L353 886 L378 1281 L343 1301 L343 1306 L373 1326 L373 1336 L378 1336 L368 1371 L373 1376 L378 1376 Q389 1376 403 1331 L423 1321 Q714 1418 778 1471 L853 1491 ZM418 1271 L418 1266 L493 976 Q495 966 518 956 Q545 956 783 1096 L793 1116 L793 1126 L788 1126 L798 1266 L783 1281 L778 1281 Q687 1261 638 1261 Q555 1261 443 1291 Q420 1281 418 1271 ZM1578 1206 Q1762 1206 1838 1016 L1838 986 Q1808 805 1738 726 Q1635 611 1458 611 L1408 616 L1393 596 Q1473 69 1473 -164 Q1452 -279 1413 -279 Q1331 -279 1288 -174 Q1217 -69 1073 31 L1068 36 L1068 41 Q1068 51 1083 51 Q1163 31 1263 21 Q1307 21 1323 51 L1323 361 Q1323 631 1293 631 Q1230 669 1218 701 L1218 706 L1223 711 L1228 711 L1283 671 Q1303 676 1303 701 L1303 746 Q1303 828 1268 846 Q1232 846 1213 771 L1203 771 L1193 781 L1193 811 Q1193 875 1303 886 L1313 886 Q1393 886 1393 711 Q1393 684 1413 676 L1418 676 Q1562 728 1673 1001 L1678 1031 L1678 1036 Q1678 1086 1593 1086 Q1502 1086 1338 1051 Q1261 1051 1153 1001 L1143 1001 L1143 1011 Q1355 1201 1533 1201 L1578 1206 ZM528 916 L518 901 Q518 711 558 711 Q778 743 778 811 L783 841 L778 846 L778 851 L783 896 L768 911 L718 906 L648 906 L528 916 ZM573 656 Q546 656 513 321 L483 216 L483 206 L498 191 L508 191 Q593 217 643 311 Q812 516 873 576 L873 596 Q851 628 818 641 L738 631 Q674 631 573 656 Z" /><glyph glyph-name="" unicode="&#x53d6;" d="M1036 1459 Q1316 1424 1316 1359 Q1280 1279 1141 1279 Q1076 1269 1076 1249 L1106 1199 Q1051 919 1051 834 L1056 809 L1031 544 L1036 524 L1031 444 L1041 389 L1026 264 Q1026 178 1076 -121 L1076 -181 Q1067 -204 956 -266 Q903 -225 846 -121 L841 -86 L886 329 L866 329 Q760 206 671 174 Q544 124 496 124 L426 124 Q351 132 351 194 Q351 277 486 394 Q540 709 611 879 Q654 950 701 1084 Q696 1104 681 1104 Q536 1049 416 1049 L406 1049 Q188 1049 136 1194 L136 1199 L146 1209 L151 1209 Q210 1154 336 1154 L386 1154 Q756 1234 756 1254 Q766 1254 846 1369 Q935 1459 1036 1459 ZM1636 1204 L1661 1204 Q1726 1204 1781 1099 L1781 1089 Q1781 1021 1716 839 Q1716 827 1526 584 L1526 574 Q1528 564 1621 524 Q1886 369 1886 229 Q1859 140 1816 119 L1806 119 Q1752 119 1566 354 Q1475 435 1416 444 L1366 414 L1356 414 Q1211 437 1211 474 L1251 559 Q1251 580 1396 644 Q1423 663 1476 759 Q1599 904 1631 1104 Q1631 1127 1601 1139 L1416 1069 L1411 1074 L1411 1084 Q1523 1178 1636 1204 ZM811 994 Q811 970 896 964 Q926 964 926 1039 L926 1129 L916 1164 L906 1164 Q874 1164 856 1099 Q811 1033 811 994 ZM791 739 Q791 714 866 714 L881 714 Q905 714 921 799 L906 809 Q884 809 791 739 ZM391 244 Q401 214 431 214 L466 214 Q603 256 666 304 Q796 426 836 494 L836 514 Q753 486 691 404 Q691 344 561 344 Q426 344 426 294 L391 244 Z" /><glyph glyph-name="" unicode="&#x53ef;" d="M1743 1468 Q1948 1441 1948 1383 L1948 1348 Q1948 1284 1773 1278 L1548 1293 L1513 1293 L1513 1273 Q1623 1198 1623 1148 L1613 1048 L1618 1013 Q1618 915 1578 558 L1588 433 L1583 408 L1588 288 L1583 183 L1588 168 Q1588 59 1438 -87 Q1295 -187 1148 -187 L1133 -167 Q1133 -151 1268 -37 Q1383 83 1393 193 Q1433 369 1433 803 L1433 873 L1428 898 L1408 898 Q1323 668 1248 668 Q1219 649 1008 578 Q895 483 863 483 Q833 493 833 523 L838 558 L833 623 L833 628 Q833 640 933 703 L1028 818 L1028 828 L1018 843 Q763 810 763 778 L778 653 Q778 509 728 488 L708 488 Q633 488 633 763 L633 768 Q633 887 678 938 L683 938 Q691 938 703 858 Q722 828 733 828 Q1152 1083 1198 1083 L1203 1083 Q1323 1074 1323 1003 L1323 988 Q1323 949 1248 848 L1248 843 L1253 843 Q1327 843 1358 1028 L1358 1033 L1348 1143 L1348 1158 Q1358 1223 1378 1253 L1348 1268 Q1302 1268 918 1143 Q799 1088 628 1043 Q449 958 358 958 L343 958 Q226 958 103 1113 L103 1128 L118 1143 Q179 1118 383 1098 Q493 1098 688 1173 L1198 1333 Q1714 1468 1743 1468 ZM1398 1198 L1378 1163 Q1378 1135 1413 1078 L1428 1078 L1438 1088 L1438 1103 Q1438 1198 1398 1198 Z" /><glyph glyph-name="" unicode="&#x540c;" d="M1383 1537 Q1533 1537 1658 1447 Q1728 1375 1728 1297 L1728 1267 L1713 1017 Q1713 827 1748 372 L1743 342 L1753 292 L1748 267 Q1763 28 1778 -37 L1768 -102 L1773 -162 Q1736 -223 1658 -242 L1623 -247 L1608 -247 Q1525 -247 1398 -127 Q1376 3 1328 57 Q1058 337 1058 397 L1058 422 Q1058 516 1238 717 L1248 752 L1248 757 Q1240 777 1213 777 Q1122 744 1018 567 L998 472 Q998 398 1048 262 L1048 242 Q1038 222 1023 222 Q944 222 873 322 Q848 407 848 467 L863 582 Q863 695 788 817 L788 827 L793 832 L798 832 Q884 751 933 607 L938 602 L948 602 L1003 677 Q1159 892 1283 892 Q1346 892 1428 517 Q1380 379 1223 247 L1223 237 Q1358 139 1513 102 L1528 122 L1523 127 L1523 322 L1518 392 L1523 397 L1523 402 L1513 462 L1508 752 L1473 1072 Q1444 1352 1413 1352 L1403 1352 L918 1192 L738 1157 Q709 1163 658 1217 Q611 1217 568 1252 L568 1257 L573 1262 L573 1267 L648 1262 L663 1262 Q795 1262 1208 1477 L1348 1512 Q1348 1524 1383 1537 ZM1193 1202 Q1219 1202 1233 1177 L1233 1162 L1188 1112 Q1188 1080 1238 1047 Q1206 998 1048 947 L1018 947 Q913 947 783 1097 L753 1127 L763 1137 Q784 1137 858 1092 L878 1087 Q924 1089 1063 1167 Q1146 1202 1193 1202 ZM443 857 Q468 840 533 722 L558 717 L578 722 Q628 654 628 582 L623 537 L633 357 L618 -67 L638 -172 Q612 -247 588 -247 Q558 -219 558 -187 L538 -187 L538 -242 L518 -262 Q449 -262 428 -122 L428 -92 Q428 -36 468 167 L463 187 L468 242 L468 332 L473 362 L468 367 L468 372 L473 507 Q473 570 428 847 L443 857 ZM528 662 L533 642 Q523 538 523 332 L523 112 L533 102 L548 102 Q573 269 573 332 L573 397 L578 442 L573 447 L573 462 L578 462 L573 512 L573 577 Q573 677 548 677 L543 677 L528 662 Z" /><glyph glyph-name="" unicode="&#x5728;" d="M1354 1439 Q1411 1439 1444 1344 Q1614 1296 1614 1224 L1614 1214 Q1614 1147 1364 1099 Q1264 1034 1224 954 L1159 854 Q1125 770 1034 654 L944 469 L944 459 L949 459 L944 409 L949 89 Q949 -130 894 -236 Q894 -258 874 -266 L859 -266 Q789 -226 759 -116 L759 -111 L804 209 L799 214 L779 214 Q726 107 529 -131 Q361 -306 289 -306 Q234 -286 234 -201 Q234 -123 329 -16 Q405 22 489 114 L699 399 Q814 565 814 584 Q719 703 719 789 L719 804 Q719 815 744 819 Q751 798 834 779 L889 724 L904 724 Q932 744 964 809 L959 844 Q1006 844 1049 939 Q1045 954 1029 959 L959 934 Q901 934 704 1134 L704 1139 Q704 1167 1094 1184 Q1229 1194 1229 1249 Q1294 1439 1354 1439 ZM1364 819 L1374 819 Q1515 819 1549 719 Q1555 679 1569 679 L1609 679 L1684 684 Q1715 650 1719 619 Q1686 489 1589 489 Q1534 489 1534 364 Q1499 129 1459 34 Q1429 -7 1429 -21 L1449 -31 L1734 39 L1779 39 L1799 44 Q1869 21 1869 -61 L1869 -66 Q1857 -156 1794 -156 L1734 -156 Q1400 -186 1349 -201 Q1124 -180 1124 -91 L1124 -86 Q1134 -16 1189 -16 L1194 -21 L1194 -26 Q1154 -54 1154 -76 L1179 -96 Q1189 -86 1244 -86 Q1304 -69 1304 -56 Q1304 -39 1249 -31 L1219 -31 L1209 -21 L1209 -16 Q1209 -8 1274 14 Q1369 117 1369 269 Q1376 269 1379 329 Q1355 378 1324 399 L1229 379 Q1026 400 999 429 L999 434 Q999 442 1119 464 L1359 584 L1369 604 Q1349 734 1304 734 L1299 739 L1299 744 Q1299 772 1364 819 Z" /><glyph glyph-name="" unicode="&#x5982;" d="M773 1354 Q878 1324 926 1254 L949 1198 Q688 686 667 631 L672 627 L672 622 Q861 713 861 748 Q801 788 801 804 Q811 895 861 895 Q909 921 935 921 Q1002 921 1060 861 L1073 861 L1124 869 Q1147 856 1147 839 Q1133 796 1041 722 L1032 683 Q1032 661 1161 644 Q1240 607 1240 562 Q1267 527 1295 380 L1304 380 L1304 376 Q1373 432 1480 432 Q1498 443 1558 675 Q1565 675 1572 735 L1558 744 L1429 701 Q1349 711 1304 761 Q1249 829 1249 847 L1263 856 Q1296 839 1337 839 Q1398 839 1498 904 Q1523 911 1651 1017 L1752 1025 Q1820 956 1826 912 L1826 887 Q1748 511 1623 397 L1623 388 Q1655 323 1655 297 Q1655 270 1614 246 L1595 246 L1313 276 Q1298 276 1290 160 Q1270 142 1253 142 L1226 142 Q1139 142 1115 423 L1129 510 Q1129 575 1027 653 Q996 653 958 493 Q898 385 898 359 Q1166 147 1166 94 L1170 81 Q1158 36 1073 -5 L1069 -5 Q920 12 903 64 L898 68 L898 72 L921 146 Q906 183 842 237 L838 237 Q820 227 713 81 Q402 -211 261 -239 L201 -239 Q155 -239 122 -204 L122 -195 Q122 -185 205 -178 Q328 -105 455 25 L607 194 Q695 325 695 342 Q695 378 584 406 L565 406 Q447 337 372 337 Q193 337 150 289 Q118 229 94 134 L85 134 L76 142 Q76 234 187 359 Q220 390 381 454 Q464 508 464 527 Q464 603 662 904 Q764 1124 764 1146 Q778 1146 778 1251 Q778 1292 759 1345 L773 1354 ZM676 467 Q676 447 736 432 Q779 432 815 549 L815 558 L801 558 Q681 475 681 467 L676 467 Z" /><glyph glyph-name="" unicode="&#x5b57;" d="M936 1535 L947 1535 Q1173 1535 1287 1300 L1292 1260 L1292 1240 L1309 1226 L1695 1308 Q1870 1269 1870 1148 L1870 1132 Q1870 1080 1677 1049 Q1473 991 1338 991 L1282 991 L1270 1000 L1270 1004 Q1270 1013 1366 1044 Q1576 1154 1576 1201 L1559 1211 Q1081 1157 1005 1108 L833 1039 Q749 993 687 980 L670 980 Q627 980 596 1053 L596 1102 Q596 1140 619 1148 L625 1148 L665 1098 L670 1093 L675 1093 Q749 1093 1050 1163 L1050 1176 Q1050 1187 1032 1187 Q806 1192 772 1231 L772 1235 L965 1314 Q1005 1340 1005 1363 Q1005 1427 852 1500 L852 1515 Q852 1535 936 1535 ZM381 1167 L387 1167 Q468 1150 579 1049 L556 710 Q529 636 484 636 Q336 689 336 798 Q336 838 410 907 Q433 951 449 1053 Q429 1096 381 1148 L381 1167 ZM1343 882 Q1515 882 1548 836 L1548 813 Q1526 749 1309 614 Q1239 581 1239 553 Q1239 529 1264 517 L1413 535 L1478 535 Q1672 513 1672 456 L1683 404 L1683 396 Q1683 367 1532 367 Q1469 386 1268 410 L1268 386 Q1279 372 1319 175 L1333 25 L1319 -48 L1324 -63 Q1276 -201 1204 -247 Q1174 -266 1159 -266 L1129 -266 Q1086 -266 919 -163 L880 -118 L885 -112 L901 -112 Q941 -137 995 -150 L1000 -145 L1005 -145 L1040 -150 Q1159 -139 1159 -77 L1174 -20 L1169 -16 L1184 72 L1179 85 L1184 137 L1179 188 L1184 224 L1164 372 L1159 372 Q1104 372 1019 326 L904 294 Q730 330 675 377 L670 382 L670 391 L675 396 L675 400 L775 396 L790 396 Q890 396 1005 465 Q1069 508 1075 526 Q1075 544 1045 544 Q1009 588 1009 608 L1054 632 Q1097 632 1154 608 Q1194 608 1264 747 L1264 752 L1248 766 L1233 766 Q1194 766 1000 669 L950 664 Q888 664 765 743 L765 752 L775 761 L824 761 L885 752 L1294 873 L1343 882 Z" /><glyph glyph-name="" unicode="&#x5b89;" d="M919 1391 Q1049 1391 1191 1256 Q1274 1159 1282 1075 L1280 1043 L1295 1033 Q1335 1033 1649 1108 Q1706 1108 1817 954 L1831 917 L1832 903 Q1836 858 1737 843 Q1727 830 1609 815 Q1531 778 1348 778 L1339 764 L1339 759 L1366 685 L1352 620 L1373 606 Q1502 654 1582 666 Q1673 666 1732 611 L1733 601 Q1708 485 1618 485 L1569 481 L1484 481 Q1315 462 1319 415 Q1260 238 1262 220 L1262 216 Q1268 204 1383 151 Q1536 68 1627 -12 Q1692 -69 1697 -128 Q1701 -174 1616 -174 Q1561 -174 1306 2 Q1220 58 1196 58 Q1171 58 1090 -44 Q837 -198 773 -198 L688 -198 Q653 -198 634 -207 L579 -202 L564 -202 L553 -193 L552 -188 Q552 -181 674 -147 L937 39 L986 114 Q977 137 949 137 L934 137 Q861 137 710 67 L690 67 Q658 87 656 109 Q655 127 687 211 Q676 232 665 234 L601 225 Q568 225 502 332 Q464 364 461 402 L458 434 L463 434 Q512 383 522 383 L852 439 Q894 477 946 685 L944 769 Q921 852 891 852 L886 852 Q817 812 736 796 Q700 796 659 880 L649 880 Q643 987 664 987 L674 987 L704 936 L720 926 L740 926 Q820 926 1070 978 L1069 992 Q1068 1003 912 1019 Q794 1051 792 1066 L792 1070 Q808 1087 960 1149 Q1003 1171 1001 1196 Q993 1283 846 1363 L846 1368 Q856 1391 919 1391 ZM446 1024 Q495 1024 643 885 L648 550 L653 546 L653 541 Q661 454 593 434 Q448 489 439 587 L437 611 Q432 668 497 731 Q515 806 518 889 Q502 930 437 1010 L437 1019 L441 1024 L446 1024 ZM948 885 L950 866 Q1011 866 1059 759 L1080 755 Q1132 838 1172 838 L1177 838 L1238 834 Q1393 834 1462 899 Q1548 947 1544 987 L1544 992 L1528 1005 L1508 1005 Q1408 978 1117 954 L972 899 Q947 895 948 885 ZM1036 518 L1053 494 Q1201 515 1195 578 L1206 685 L1200 690 L1200 694 L1203 722 Q1200 750 1140 755 Q1066 743 1071 685 Q1078 601 1036 518 ZM895 239 L911 230 Q960 244 1025 244 L1090 239 Q1115 254 1148 378 L1147 383 L1131 397 L1126 397 Q1001 344 899 253 L895 239 Z" /><glyph glyph-name="" unicode="&#x5bff;" d="M1029 1553 Q1179 1553 1179 1438 Q1181 1408 1204 1408 Q1241 1428 1284 1428 Q1344 1422 1344 1403 Q1344 1324 1219 1313 Q1179 1283 1179 1253 L1194 1238 L1259 1243 Q1388 1243 1454 1203 Q1567 1248 1644 1248 L1664 1248 Q1750 1248 1774 1118 Q1774 1035 1594 933 L1304 863 Q1154 821 1154 793 L1159 788 L1159 778 L1154 728 L1179 718 Q1447 773 1499 773 Q1559 759 1559 718 Q1543 638 1419 638 L1359 628 L1359 608 L1364 608 Q1614 603 1614 563 Q1622 563 1639 528 L1639 508 Q1631 483 1574 483 L1499 483 L1379 503 L1364 503 L1349 483 Q1403 423 1474 413 Q1609 395 1609 328 L1609 323 Q1609 299 1404 268 Q1378 268 1374 153 L1389 33 Q1389 -123 1349 -182 Q1290 -227 1229 -227 Q1124 -227 1054 -117 Q1009 -76 1009 -47 L1009 -2 Q1034 123 1104 123 L1124 123 Q1234 96 1234 13 Q1206 -37 1174 -37 L1164 -37 L1089 3 L1079 3 L1059 -17 L1059 -32 Q1107 -112 1189 -112 L1239 -112 Q1292 -112 1299 18 L1304 213 Q1304 228 1289 228 L1284 233 L1284 238 Q1264 228 1229 228 L1189 228 Q1144 228 1059 253 Q1048 253 1019 203 L784 -57 Q764 -91 729 -112 Q554 -79 554 3 Q539 3 539 158 Q539 271 654 368 L669 368 L679 358 L679 348 L644 263 L644 253 L654 253 L654 248 Q812 338 884 338 Q943 338 979 288 L994 278 L1004 278 Q1029 295 1284 358 L1294 378 Q1294 412 1194 503 Q1139 503 539 373 L534 373 Q411 398 334 433 L334 443 L344 453 L389 453 Q514 453 959 548 Q988 558 1074 563 L1074 588 L1069 588 L954 573 L879 573 Q744 583 744 638 L759 648 L774 648 Q774 623 789 623 L879 643 L879 668 L854 668 L844 678 L844 683 L929 728 L929 743 Q929 753 914 753 Q816 728 729 728 L644 728 Q589 728 589 743 L589 748 Q589 763 679 773 L954 873 L954 888 L949 888 Q737 833 639 833 Q489 833 489 878 Q459 916 459 938 L459 958 Q459 1053 509 1053 Q604 1034 604 1003 Q604 978 624 973 Q709 973 934 1033 L1169 1098 Q1267 1113 1339 1138 L1339 1153 L1329 1163 L1274 1163 Q1161 1163 859 1053 L764 1038 L754 1038 Q684 1038 659 1113 L659 1118 Q659 1149 744 1173 Q751 1146 769 1133 Q974 1171 974 1208 L1014 1253 L1014 1263 L1004 1278 L944 1273 Q802 1273 724 1328 L724 1333 L734 1348 L889 1338 Q1034 1350 1034 1383 L1034 1388 Q1034 1465 994 1488 L939 1483 L924 1498 L924 1503 Q967 1553 1029 1553 ZM1199 978 L1199 963 L1234 963 Q1370 963 1419 998 L1469 1043 L1469 1058 Q1262 1003 1199 978 ZM634 168 Q639 53 654 53 L664 53 L759 158 L759 163 Q759 183 689 183 L649 183 L634 168 Z" /><glyph glyph-name="" unicode="&#x5c71;" d="M939 1311 L989 1202 Q1020 1173 1144 1124 Q1249 1069 1249 1020 Q1289 930 1289 773 L1289 768 Q1289 634 1264 521 Q1269 504 1294 504 Q1358 504 1369 599 Q1369 625 1389 625 L1459 573 L1539 547 Q1559 565 1559 582 L1559 642 L1554 699 L1559 716 L1544 838 L1544 855 L1549 860 Q1508 1020 1429 1064 L1354 1103 L1354 1107 L1369 1120 L1424 1120 Q1548 1120 1684 1029 Q1772 916 1799 799 L1844 564 L1849 560 L1849 556 L1844 521 L1849 434 L1849 395 Q1849 274 1784 243 L1779 243 L1709 265 L1659 234 Q1454 234 1454 260 Q1454 275 1499 330 Q1495 343 1479 347 Q1408 304 1339 304 Q1236 260 1054 200 Q988 170 799 122 Q540 0 469 0 Q436 0 264 100 L259 113 Q259 185 334 265 Q410 300 424 339 Q500 467 509 577 L509 608 Q509 623 459 716 L464 721 L474 721 L689 543 L699 517 Q664 445 654 395 Q602 353 589 295 L609 278 Q766 317 969 404 Q1064 432 1064 464 L1044 508 L1049 577 L1049 586 L1034 660 L1044 807 Q1044 926 979 1020 Q942 1089 919 1159 L909 1242 L909 1259 Q909 1311 939 1311 Z" /><glyph glyph-name="" unicode="&#x5de5;" d="M1362 1084 Q1429 1084 1483 1023 L1483 1012 L1450 948 L1424 925 L1424 921 L1433 890 Q1433 837 1274 804 L1249 804 L1228 788 L1233 785 L1233 780 Q1233 640 1166 371 L1183 360 Q1450 413 1545 413 Q1707 413 1741 368 Q1787 338 1787 284 L1795 235 Q1795 213 1725 190 L1437 185 L1354 185 L1254 174 L1233 178 Q1123 169 991 129 Q850 72 759 72 L738 72 Q611 72 367 182 L367 185 Q367 193 380 193 L408 190 Q452 190 675 250 Q755 264 900 307 Q962 307 962 356 Q971 356 988 493 Q1009 493 1025 743 L1012 751 Q915 724 892 724 L888 724 Q794 732 750 758 Q708 758 546 898 L546 906 L555 913 L563 913 Q608 875 654 872 Q769 872 996 929 Q1013 946 1112 971 Q1216 1031 1262 1031 Q1292 1059 1362 1084 Z" /><glyph glyph-name="" unicode="&#x5e74;" d="M1388 1537 L1413 1537 Q1597 1516 1595 1472 Q1595 1461 1553 1422 Q1545 1377 1532 1377 L1412 1377 L1342 1382 Q1241 1370 1241 1357 L1240 1342 Q1279 1320 1276 1242 L1275 1202 Q1274 1187 1294 1187 L1294 1182 L1389 1192 Q1474 1192 1592 1132 L1591 1117 Q1590 1102 1545 1102 L1535 1087 L1535 1082 L1563 1052 L1563 1042 Q1563 1030 1522 1017 L1263 1032 Q1247 1017 1246 997 L1241 997 Q1253 973 1264 827 Q1276 797 1445 727 Q1632 687 1752 632 Q1794 578 1793 537 L1792 522 Q1792 507 1726 492 Q1683 492 1455 582 L1440 582 Q1290 582 1288 542 L1311 112 Q1296 -241 1141 -373 L1131 -373 Q1121 -373 1115 -283 Q1050 -24 1060 212 Q1051 462 1040 462 L1030 462 L1030 467 Q703 371 599 322 Q588 303 517 277 Q473 235 430 232 L420 232 Q323 232 236 367 L236 382 Q239 446 275 467 L285 467 L340 457 Q455 457 864 577 Q945 600 946 622 L947 632 Q947 653 803 662 Q803 670 718 672 L683 672 L674 682 Q674 690 766 747 L777 777 L778 782 Q686 860 686 872 Q687 887 657 902 L552 887 Q417 897 420 967 L416 987 Q429 1017 452 1017 Q450 957 485 957 Q530 957 681 997 L1010 1092 Q1031 1099 1041 1117 L1041 1122 Q996 1227 996 1247 L1008 1297 Q1010 1328 905 1342 Q646 1177 573 1172 Q509 1152 452 1152 L447 1152 L438 1162 L438 1167 Q444 1179 561 1237 L746 1367 Q773 1407 773 1422 L774 1427 L747 1512 L747 1517 L758 1532 Q987 1522 1016 1492 Q1104 1457 1145 1457 Q1199 1457 1317 1522 Q1351 1537 1388 1537 ZM889 942 Q888 920 1028 797 L1038 797 L1054 812 L1050 847 L1051 872 L1057 902 Q1049 987 1021 987 Q890 958 889 942 Z" /><glyph glyph-name="" unicode="&#x5e76;" d="M1365 1537 Q1550 1482 1550 1402 L1550 1372 Q1550 1312 1390 1247 Q1216 1147 1160 1147 L1155 1147 L1145 1157 Q1267 1236 1345 1367 Q1357 1367 1370 1427 Q1349 1465 1275 1502 L1275 1512 Q1275 1525 1365 1537 ZM770 1442 L860 1357 L880 1357 L915 1397 L920 1397 Q930 1397 930 1382 Q923 1092 895 1092 L890 1087 L885 1087 Q838 1087 780 1187 L750 1437 L755 1442 L770 1442 ZM1390 1092 L1400 1092 Q1450 1092 1495 1022 L1495 1007 Q1495 984 1365 967 Q1350 957 1350 907 Q1330 821 1330 682 L1350 672 Q1445 723 1635 747 L1645 747 Q1805 683 1805 642 Q1758 590 1705 582 L1690 582 Q1340 573 1340 542 L1340 522 Q1370 369 1400 -78 Q1415 -148 1460 -268 L1460 -278 Q1447 -303 1420 -303 L1385 -303 Q1249 -303 1225 -78 L1225 -33 L1245 312 L1240 382 L1240 457 Q1237 527 1210 527 Q1026 465 1010 452 Q995 452 970 202 Q899 -123 795 -123 Q754 -123 695 -53 L695 -38 Q802 38 825 117 L885 392 Q885 407 870 407 L865 412 L865 417 Q588 332 540 332 L510 332 Q406 332 305 487 L305 492 L315 502 L325 502 Q375 462 430 462 L465 462 Q855 529 855 547 L855 557 L860 557 L785 652 Q715 774 715 807 L730 817 L735 817 Q756 792 895 762 Q990 705 990 597 L1015 582 Q1225 636 1225 662 L1220 767 L1225 917 L1210 932 L1210 937 L1015 887 Q970 887 900 832 L850 817 L630 907 L630 912 Q630 932 950 1002 Q1306 1092 1390 1092 Z" /><glyph glyph-name="" unicode="&#x5f0f;" d="M1306 1537 Q1462 1495 1651 1322 Q1701 1221 1701 1162 L1701 1137 Q1692 1072 1641 1072 Q1542 1113 1416 1277 Q1381 1387 1376 1462 L1306 1527 L1306 1537 ZM926 1312 Q1041 1272 1041 1227 Q1047 1227 1061 1152 Q1078 1129 1101 1057 L1126 1047 Q1149 1047 1211 1097 L1316 1117 Q1426 1102 1426 1042 Q1426 970 1211 852 L1201 822 Q1201 774 1351 512 L1416 387 Q1587 119 1661 32 L1671 32 L1676 37 L1681 37 L1656 197 L1656 202 L1666 212 Q1780 104 1831 -33 Q1926 -171 1926 -233 L1926 -268 Q1926 -311 1836 -348 L1826 -348 Q1703 -348 1446 7 L1321 197 Q1321 210 1236 362 L1111 592 Q1111 667 1041 737 Q821 632 701 597 L546 572 Q336 605 276 662 Q205 695 201 707 L211 717 L286 717 Q396 717 566 797 Q931 941 931 967 L931 972 Q913 1082 871 1082 L856 1082 L796 1067 Q771 1079 771 1112 Q813 1282 871 1282 Q899 1312 926 1312 ZM841 517 Q1046 517 1046 332 Q1046 289 946 157 L806 12 L816 -3 L916 7 Q1011 -15 1011 -88 L1021 -133 Q1001 -188 941 -188 Q888 -188 606 -288 Q508 -288 461 -158 L461 -153 Q461 -124 601 12 Q676 103 676 132 Q666 154 656 157 Q588 127 566 127 Q500 127 376 182 Q341 216 341 247 Q341 317 411 317 Q454 317 731 482 L841 517 Z" /><glyph glyph-name="" unicode="&#x5feb;" d="M1067 1537 L1072 1537 Q1230 1537 1347 1332 Q1392 1184 1392 1037 L1412 1017 Q1486 1047 1527 1047 Q1687 1021 1687 922 Q1687 846 1457 657 L1387 552 Q1397 529 1407 527 Q1570 547 1637 567 Q1767 567 1877 427 L1877 407 Q1871 362 1832 362 L1772 362 Q1722 362 1592 402 L1402 352 Q1369 352 1352 147 Q1352 126 1557 107 L1777 27 Q1867 -82 1867 -113 L1867 -118 Q1851 -213 1807 -213 L1797 -213 Q1743 -213 1462 22 Q1373 82 1347 82 Q1319 82 1282 -38 Q1211 -158 1142 -158 L1047 -168 Q972 -164 972 -148 Q1108 -52 1137 62 Q1177 135 1197 287 L1182 307 Q932 197 782 197 L742 197 Q690 197 617 232 Q586 232 552 42 Q552 -81 627 -228 L627 -248 L602 -273 L587 -273 Q465 -225 417 -123 Q402 53 397 657 Q372 657 372 632 Q353 247 307 247 L302 242 L297 242 Q229 242 172 407 Q162 429 157 497 Q157 715 237 787 L252 787 Q292 759 292 717 L292 712 L287 627 L307 627 Q354 747 377 767 L392 807 Q392 1023 347 1042 Q307 1092 307 1112 Q307 1145 432 1197 L442 1197 Q484 1197 507 1152 L502 1102 Q509 947 532 947 L537 942 L542 942 L602 952 Q702 952 722 867 L722 857 Q722 810 612 772 L597 772 L552 777 L537 772 L537 707 Q537 649 562 497 L557 422 Q577 287 647 287 L657 287 Q805 287 1082 397 L1082 407 L1067 422 L1062 422 L972 412 L962 427 Q964 435 1037 462 L1042 467 L1042 472 L997 567 Q977 605 977 637 L992 807 Q992 877 947 972 L962 977 L1127 937 L1162 937 Q1212 937 1242 977 Q1210 1447 1107 1492 L1057 1527 L1067 1537 ZM1392 812 L1387 757 L1392 742 L1407 742 Q1523 887 1537 982 Q1532 1002 1507 1002 Q1392 976 1392 897 L1392 812 ZM1097 882 L1117 797 L1112 757 Q1156 527 1212 527 L1237 552 L1212 597 L1222 607 L1222 602 Q1252 602 1252 647 L1252 757 Q1252 882 1227 882 Q1157 907 1122 907 Q1109 907 1097 882 Z" /><glyph glyph-name="" unicode="&#x606d;" d="M1049 1537 L1054 1537 Q1184 1537 1233 1424 L1228 1360 L1233 1328 L1217 1210 L1270 1173 L1270 1167 Q1270 1146 1170 1028 L1096 889 L1091 889 Q1099 867 1107 867 L1438 942 L1559 958 Q1641 958 1680 857 L1680 851 Q1663 799 1386 771 L1191 723 Q1165 713 1165 685 Q1286 582 1512 524 L1790 449 Q1920 449 1943 385 L1964 326 Q1951 289 1932 289 L1806 283 Q1459 348 1386 407 Q1241 474 1086 626 Q978 707 949 707 L939 707 Q919 695 818 487 L770 412 L776 396 Q823 412 891 412 Q935 412 991 332 L986 305 L1044 -322 L1044 -327 Q1044 -375 981 -381 Q943 -339 881 -305 Q865 -286 860 -247 L839 -241 Q809 -273 781 -273 L770 -273 Q702 -273 623 -145 L597 -54 Q597 21 634 21 Q699 21 770 80 L791 64 L791 5 Q791 -145 844 -188 L860 -188 L875 -172 L870 -134 L860 107 L865 107 Q851 203 749 310 L744 332 L744 348 L749 353 L749 358 L739 358 L555 133 Q330 -80 208 -80 L129 -80 L113 -64 L113 -59 L265 42 Q430 195 560 380 Q697 590 697 626 L681 637 L381 471 Q303 423 265 423 Q113 489 113 540 Q113 554 250 567 Q383 605 618 707 Q802 759 802 787 L786 867 L786 899 Q778 921 749 921 L707 921 Q589 921 518 1044 L518 1055 L534 1060 Q615 1001 665 1001 Q776 1001 776 1049 Q776 1127 644 1269 L644 1280 L660 1291 L765 1296 Q881 1296 881 1076 L907 1055 Q1065 1109 1065 1242 L1075 1349 L1075 1376 L965 1516 L965 1521 Q965 1537 1049 1537 ZM902 910 L907 841 L933 835 Q975 927 975 948 L954 964 Q902 951 902 910 ZM1075 766 L1075 739 L1107 733 Q1196 766 1196 782 L1196 787 L1175 792 L1075 766 ZM1280 251 Q1522 183 1522 107 L1522 101 Q1522 72 1491 53 L1475 53 Q1357 53 1265 235 L1265 240 L1280 251 ZM1096 139 Q1391 26 1391 -75 L1391 -107 Q1367 -150 1333 -150 Q1224 -121 1180 -43 Q1075 79 1075 128 L1096 139 Z" /><glyph glyph-name="" unicode="&#x610f;" d="M911 1537 Q1060 1537 1216 1437 L1231 1412 L1231 1407 Q1231 1352 1136 1352 L1066 1357 L921 1347 L901 1362 L901 1367 Q909 1382 971 1417 L976 1442 Q974 1458 896 1517 L896 1522 L911 1537 ZM1361 1402 L1376 1402 Q1450 1402 1476 1317 L1476 1302 Q1463 1278 1366 1247 L1366 1232 Q1446 1186 1446 1177 L1446 1162 Q1334 1046 1221 987 L1221 972 L1546 1032 Q1679 1032 1741 942 Q1766 888 1766 862 Q1759 842 1751 842 L1726 842 Q1675 842 1471 907 Q1471 922 1351 927 Q1248 927 1016 857 Q986 857 921 767 L921 757 L931 747 Q1133 832 1231 832 L1296 832 Q1471 786 1471 737 Q1436 679 1436 437 Q1412 367 1366 367 L1301 372 Q1280 372 1176 327 Q1122 347 1051 347 Q1038 347 996 287 L976 282 Q854 325 806 432 L786 567 Q786 693 861 777 L861 782 L851 792 Q644 717 526 647 Q526 637 491 627 Q314 659 256 717 L271 732 L301 732 Q503 732 706 817 Q926 875 991 942 L991 947 L986 952 L986 957 L851 922 Q781 958 781 1007 Q781 1067 861 1097 Q970 1144 981 1157 L981 1162 L971 1172 L951 1172 L881 1157 Q736 1205 736 1277 L736 1292 L746 1302 L751 1302 Q757 1302 771 1252 Q792 1232 821 1232 L861 1232 Q963 1232 1361 1402 ZM906 1067 L906 1057 L921 1052 Q989 1064 1081 1112 Q1102 1112 1231 1202 L1231 1207 L1221 1222 Q974 1120 906 1067 ZM886 677 L886 617 L906 597 L911 597 L1096 657 L1131 662 L1256 622 L1271 642 L1276 757 Q1250 782 1231 782 Q956 692 896 692 L886 677 ZM971 507 L956 507 L961 542 L961 547 L936 552 L921 552 L901 532 L901 522 Q919 503 941 437 L971 412 L1011 412 Q1048 412 1106 467 L1196 442 Q1216 449 1216 457 L1216 467 Q1201 467 1171 502 L1171 507 Q1171 517 1186 517 L1246 512 L1266 547 Q1256 569 1246 572 L1211 572 L971 507 ZM1236 432 L1236 427 Q1246 404 1256 402 L1266 412 L1266 417 L1251 432 L1236 432 ZM1536 392 L1571 392 Q1691 392 1731 342 L1731 327 Q1731 311 1676 297 Q1618 317 1486 317 L1451 317 Q1321 300 1321 252 Q1268 212 1216 117 Q1187 92 1151 92 Q1046 105 1046 187 L1046 207 Q1046 278 1136 292 L1186 292 L1196 282 L1196 277 L1161 252 L1156 232 L1156 227 L1176 222 Q1221 239 1221 272 Q1254 280 1366 337 Q1495 392 1536 392 ZM1351 237 L1356 237 Q1410 237 1551 137 Q1746 16 1746 -22 Q1746 -98 1476 -127 Q1431 -137 1351 -137 Q1060 -137 836 47 Q726 163 726 217 L731 222 L736 222 Q948 2 1016 2 Q1142 -47 1311 -47 Q1486 -47 1486 -12 L1486 -7 Q1458 116 1341 227 L1351 237 ZM616 142 Q631 142 631 122 Q631 -46 676 -67 Q686 -67 686 -92 Q674 -127 626 -127 Q564 -127 556 -2 Q591 142 616 142 Z" /><glyph glyph-name="" unicode="&#x6210;" d="M1145 1340 Q1343 1306 1336 1251 Q1370 1210 1366 1173 Q1422 1168 1440 1131 L1438 1118 Q1408 1071 1406 1051 Q1401 1011 1458 915 Q1468 868 1462 813 Q1451 797 1425 799 Q1366 819 1284 936 Q1286 950 1262 960 Q1211 940 1207 909 Q1327 547 1425 422 L1429 418 Q1463 415 1503 582 Q1552 700 1558 751 Q1560 770 1504 844 L1505 852 L1511 857 L1516 856 Q1710 711 1692 558 Q1678 443 1550 265 L1549 262 Q1560 236 1777 28 Q1812 25 1819 -68 Q1849 -113 1843 -163 Q1835 -232 1791 -227 Q1601 -138 1443 118 L1430 129 Q1311 110 1276 113 Q1254 123 1254 134 L1255 147 Q1345 206 1349 237 L1350 246 Q1353 275 1231 447 Q1187 557 1163 655 Q1083 831 1044 895 L1039 899 L1034 900 Q954 881 773 900 Q642 923 636 945 L636 948 Q641 956 815 962 Q999 974 1004 1017 Q969 1147 829 1244 Q780 1277 753 1313 L754 1318 L765 1326 L769 1325 Q852 1317 1001 1240 Q1087 1199 1149 1086 L1168 1079 L1234 1134 Q1249 1262 1179 1293 Q1155 1296 1138 1323 L1139 1332 L1145 1335 L1145 1340 ZM381 917 L387 917 Q589 821 589 681 Q611 600 621 334 Q621 106 568 -5 Q476 -115 440 -148 Q383 -161 301 -167 L216 -138 L216 -133 L307 -91 Q396 -35 446 169 Q477 308 477 396 L477 567 L466 657 L472 709 Q472 721 371 861 L366 899 Q373 917 381 917 ZM890 628 Q992 628 1113 530 L1118 505 Q1113 449 968 141 Q846 -72 714 -114 L691 -96 L691 -82 Q692 -26 782 94 Q883 324 883 430 L867 440 L862 440 Q774 349 660 349 L643 368 L643 378 Q776 503 862 620 L890 628 Z" /><glyph glyph-name="" unicode="&#x6240;" d="M1631 1537 L1662 1532 L1668 1537 L1673 1537 Q1940 1499 1940 1377 Q1928 1325 1741 1315 L1673 1305 L1662 1305 Q1597 1305 1432 1341 Q1195 1331 1144 1310 Q1078 1310 950 1263 L939 1243 Q1049 1155 1049 953 L1044 948 L1065 933 Q1256 1096 1275 1181 Q1306 1294 1385 1294 Q1563 1243 1563 1139 Q1563 1099 1474 953 L1463 917 L1463 834 Q1463 793 1495 778 L1500 778 L1584 819 Q1701 855 1736 855 Q1903 827 1903 731 Q1903 693 1767 648 Q1720 641 1720 602 Q1720 498 1793 245 L1793 225 Q1793 191 1688 173 L1458 230 Q1337 279 1337 292 L1337 297 L1348 307 L1369 307 Q1437 307 1526 364 Q1558 396 1558 452 L1558 473 Q1558 602 1521 602 Q1463 617 1348 741 Q1306 863 1306 917 Q1306 971 1353 1181 L1353 1201 L1327 1206 L1248 1046 Q1232 982 1133 876 Q1132 844 1055 747 L1049 705 L1055 679 Q1040 442 1002 442 Q985 400 950 400 Q911 400 897 499 L782 576 Q714 666 714 819 Q718 933 735 933 L740 933 L772 845 Q824 721 855 721 Q986 790 986 922 L986 953 Q959 1237 887 1237 Q824 1237 531 1077 L473 1067 Q328 1085 195 1186 Q169 1186 169 1201 L169 1206 L174 1212 L174 1217 L227 1206 Q379 1253 546 1284 Q610 1336 787 1372 Q991 1444 1374 1496 Q1450 1519 1631 1537 ZM426 824 Q558 769 667 674 Q714 603 714 540 L714 519 Q698 448 682 106 Q671 -4 630 -18 L625 -18 Q597 -18 499 101 Q452 125 452 158 Q525 417 525 447 L525 581 Q525 666 431 778 L415 819 L421 824 L426 824 Z" /><glyph glyph-name="" unicode="&#x62e5;" d="M1247 1537 Q1462 1475 1462 1442 L1472 1392 Q1457 1357 1422 1357 Q1267 1381 1267 1447 Q1232 1507 1232 1522 L1247 1537 ZM702 1502 Q760 1496 792 1462 L757 1287 L762 1247 L752 1202 L752 1062 Q761 1044 822 1017 L832 987 Q742 884 742 817 L747 772 L742 722 L767 707 L927 822 Q992 822 992 867 Q1006 879 1092 1067 Q1102 1067 1102 1102 L1102 1107 L1092 1107 L1092 1112 Q1011 1057 972 1057 Q876 1057 822 1187 L822 1197 Q873 1152 927 1152 Q1079 1202 1332 1267 Q1607 1377 1702 1377 Q1827 1327 1827 1282 Q1827 1247 1792 1247 L1707 1247 Q1635 1247 1502 1202 Q1447 1202 1447 1112 Q1437 1067 1402 997 L1422 987 Q1542 1051 1597 1057 Q1657 1021 1657 977 Q1657 884 1462 707 Q1418 662 1402 627 Q1407 611 1422 607 Q1507 633 1507 652 L1507 682 L1562 672 L1567 672 Q1585 672 1702 727 L1727 732 Q1765 732 1832 657 L1832 647 Q1825 626 1677 572 Q1659 551 1657 512 Q1665 487 1687 487 L1712 492 Q1752 473 1752 442 Q1752 403 1667 377 L1657 362 Q1657 312 1717 312 Q1779 312 1782 242 Q1782 192 1657 162 L1642 142 Q1650 77 1677 77 L1747 82 Q1822 61 1822 17 Q1822 -48 1677 -48 L1532 -58 L1412 -53 Q1392 -53 1382 -73 L1382 -83 L1402 -138 Q1402 -168 1367 -168 Q1296 -168 1262 17 Q1262 88 1332 427 L1337 487 L1317 592 Q1379 734 1437 767 Q1540 911 1567 972 Q1562 992 1542 992 L1277 717 L1267 717 Q1202 739 1202 782 L1202 797 Q1202 821 1277 952 Q1355 1106 1382 1192 Q1372 1212 1357 1212 Q1192 1163 1192 1147 L1192 1117 Q1192 1079 1087 897 L1067 852 Q1067 836 1142 817 L1152 802 L1152 797 L1167 382 Q1167 19 1027 -98 Q978 -166 922 -198 L917 -198 L907 -188 Q1052 42 1052 252 Q1058 252 1067 372 Q1067 402 1032 402 Q987 389 827 272 L807 267 L802 267 L782 282 L777 282 Q765 282 762 262 Q807 -9 807 -128 Q807 -183 687 -223 Q677 -223 632 -178 Q579 -114 527 62 L562 102 L592 97 L597 102 L597 122 L592 142 L597 177 L597 387 Q597 395 577 402 Q523 312 367 312 Q172 323 172 352 L172 357 Q179 376 312 412 Q432 464 602 582 Q620 582 627 822 Q620 847 592 847 L482 847 Q420 847 322 977 Q302 1016 302 1042 L302 1047 L312 1057 L327 1057 Q399 987 467 987 L487 987 Q622 1004 622 1042 Q622 1372 587 1372 Q502 1372 502 1422 L502 1442 Q523 1473 592 1497 L642 1492 L702 1502 ZM1477 1237 L1477 1227 L1487 1227 L1497 1237 L1497 1247 L1487 1247 L1477 1237 ZM747 452 L747 422 Q747 385 762 382 L772 382 L877 542 L877 552 L837 602 Q837 637 822 637 L812 637 Q747 581 747 452 ZM1057 607 L1017 532 L1017 527 L1032 517 L1057 517 Q1087 517 1087 602 L1082 607 L1057 607 ZM1397 542 Q1394 447 1387 447 Q1387 434 1412 422 Q1557 450 1557 487 Q1557 562 1482 562 Q1427 562 1427 572 Q1397 560 1397 542 ZM1397 387 Q1378 372 1352 247 Q1357 227 1372 227 Q1552 257 1552 287 L1552 302 Q1552 342 1462 357 Q1418 387 1397 387 ZM1332 87 Q1349 7 1372 7 Q1532 23 1532 67 L1542 132 Q1542 162 1442 162 L1357 187 Q1332 187 1332 87 Z" /><glyph glyph-name="" unicode="&#x6301;" d="M1260 1537 L1265 1537 Q1310 1529 1310 1497 L1290 1127 Q1290 1047 1320 1047 Q1454 1192 1550 1192 L1560 1192 Q1578 1183 1585 1162 Q1585 1147 1535 1077 Q1497 1005 1440 977 L1295 892 Q1295 752 1325 752 Q1599 882 1645 882 L1695 882 Q1800 841 1800 772 Q1777 717 1580 652 L1560 632 L1560 627 L1605 567 L1690 587 Q1775 575 1775 507 L1775 472 Q1775 446 1640 427 Q1605 413 1595 392 L1615 22 L1615 -53 Q1615 -275 1560 -308 Q1502 -368 1430 -368 Q1249 -341 1150 -268 Q1127 -258 1125 -248 L1140 -233 L1195 -233 L1205 -223 L1205 -203 Q1100 -139 995 17 L995 27 Q995 37 1010 37 Q1207 -55 1310 -158 Q1310 -178 1340 -198 L1345 -198 Q1450 -164 1450 2 L1455 7 L1450 12 L1455 47 L1455 97 L1450 202 L1455 207 L1455 212 Q1441 327 1415 327 Q1120 187 1040 187 L1010 187 Q936 187 915 287 Q915 365 1030 417 Q1125 472 1125 497 L1105 507 L955 462 L855 482 Q780 445 780 312 L780 262 Q781 231 795 202 L790 182 L795 92 L790 67 Q840 -187 840 -293 Q840 -339 720 -383 Q709 -383 665 -338 Q611 -274 560 -98 L595 -58 L625 -63 L630 -58 L630 -38 L625 -18 L630 17 L630 227 L610 242 Q555 152 400 152 Q205 163 205 192 L205 197 Q211 216 345 252 Q464 304 635 422 Q653 422 660 662 Q653 687 625 687 L515 687 Q453 687 355 817 Q335 856 335 882 L335 887 L345 897 L360 897 Q431 827 500 827 L520 827 Q655 844 655 882 Q655 1212 620 1212 Q535 1212 535 1262 L535 1282 Q567 1342 745 1342 Q825 1323 825 1302 L790 1127 L795 1087 L785 1042 L785 902 Q794 884 855 857 L865 827 Q775 724 775 657 L775 627 L800 622 Q812 661 830 667 L835 667 Q845 667 845 617 L870 602 L955 662 L975 662 Q985 662 985 622 L1000 612 Q1225 687 1225 727 L1235 857 Q1228 878 1210 887 L1180 887 Q1044 887 925 987 L925 1002 L930 1002 Q1050 962 1115 962 Q1235 979 1235 1012 L1235 1152 L1240 1382 L1235 1397 L1215 1397 Q1197 1352 1190 1352 L1185 1357 L1180 1357 L1195 1402 L1190 1407 Q1203 1537 1260 1537 ZM1340 532 Q1340 437 1370 437 L1375 437 Q1385 445 1390 547 Q1385 567 1365 567 Q1340 560 1340 532 ZM1170 542 L1170 522 L1180 522 L1190 532 L1190 542 L1170 542 ZM975 312 Q981 287 1010 287 L1035 287 Q1093 287 1220 352 L1225 367 L1155 452 L1150 452 Q975 376 975 312 Z" /><glyph glyph-name="" unicode="&#x63d0;" d="M1360 1537 L1365 1537 Q1435 1537 1435 1447 Q1420 1379 1420 1177 L1420 1102 L1415 982 L1420 967 L1415 917 L1415 892 Q1415 868 1485 862 Q1530 827 1530 802 L1530 787 Q1501 739 1350 672 Q1311 630 1285 562 Q1303 542 1320 542 L1375 542 Q1442 542 1650 602 L1765 607 Q1835 607 1875 502 Q1865 462 1815 462 L1660 462 Q1463 462 1395 372 Q1305 326 1305 202 Q1282 142 1235 142 L1235 132 Q1254 113 1385 77 Q1516 37 1565 37 L1820 42 Q1980 42 2000 -72 Q2000 -105 1755 -127 Q1688 -127 1645 -142 Q1534 -142 1070 72 L905 147 Q891 147 785 37 Q701 -12 700 -37 L710 -117 Q710 -159 590 -207 L585 -207 Q515 -167 480 -52 L445 77 Q472 112 510 112 L515 117 L515 122 L510 147 Q520 147 525 387 L530 392 L530 397 Q523 417 515 417 L510 417 Q441 327 295 327 L240 322 L205 322 Q100 334 100 357 L100 367 Q107 385 240 422 Q377 478 545 597 Q559 624 580 837 Q563 857 545 857 L435 857 Q376 857 285 982 Q265 1021 265 1047 L265 1052 L275 1062 L285 1062 Q376 982 405 982 Q552 982 575 1072 Q590 1123 590 1212 L590 1242 Q590 1382 550 1382 Q480 1382 480 1427 Q480 1469 575 1502 L620 1497 L690 1507 Q770 1488 770 1467 Q770 1438 730 1337 L730 1262 Q715 1198 715 1092 L715 1067 Q715 1059 780 1022 L790 997 Q690 889 690 817 L695 787 L685 732 L710 717 L870 832 L885 832 L900 817 Q900 797 830 732 Q827 709 720 612 L685 547 L700 532 L700 527 Q938 709 1010 782 Q1100 882 1100 1022 L1100 1032 Q1100 1243 1055 1302 L1055 1312 Q1055 1322 1070 1322 Q1190 1322 1190 1277 L1200 1222 L1195 1202 Q1195 1177 1250 1177 Q1295 1159 1295 1127 L1255 1017 L1255 1012 L1275 992 L1300 992 Q1320 1002 1320 1017 L1315 1047 Q1325 1118 1325 1242 L1325 1307 Q1325 1392 1290 1392 Q1244 1367 1160 1347 Q1065 1363 1065 1432 L1065 1442 Q1068 1472 1080 1472 L1125 1437 L1130 1437 L1320 1532 L1360 1537 ZM1205 777 L1220 767 L1225 767 Q1275 798 1275 812 L1270 827 Q1205 812 1205 777 ZM900 557 L905 557 Q1100 620 1100 657 Q1081 700 1070 702 L1065 702 Q1041 702 900 567 L900 557 ZM680 337 L685 282 L680 222 L705 207 Q832 234 935 352 L1060 527 L1055 527 Q817 392 700 392 Q685 374 680 337 ZM1265 477 L1265 422 L1275 412 Q1301 412 1360 467 L1360 472 Q1360 490 1290 512 Q1265 505 1265 477 ZM1100 417 L950 217 L950 207 Q950 184 1055 177 Q1075 163 1210 137 L1225 142 L1225 147 Q1108 246 1100 297 L1100 307 L1115 407 L1100 417 ZM685 142 Q695 119 705 117 L710 117 Q747 140 765 167 L765 172 Q765 184 745 187 Q685 187 685 142 Z" /><glyph glyph-name="" unicode="&#x652f;" d="M1077 1453 Q1297 1437 1297 1313 L1307 1303 L1357 1313 Q1482 1313 1482 1268 L1487 1248 Q1487 1201 1407 1133 Q1372 1118 1297 1108 Q1279 1108 1252 883 Q1174 802 1172 758 L1177 753 L1182 753 L1287 783 L1292 783 Q1312 783 1462 673 Q1502 616 1502 598 Q1460 405 1417 318 L1377 198 L1377 193 Q1390 162 1627 58 Q1867 -46 1867 -97 Q1829 -223 1817 -227 L1812 -227 Q1512 -192 1417 -157 Q1345 -120 1217 8 L1202 8 Q1082 -107 912 -137 L707 -177 L537 -162 L532 -162 L512 -142 L512 -132 Q512 -119 627 -97 Q809 -24 927 73 Q1027 153 1027 188 Q997 266 882 353 Q812 376 812 383 L812 393 Q823 413 932 413 L987 413 Q1018 413 1127 353 L1137 353 Q1165 353 1252 548 L1262 608 L1237 623 Q1169 558 1032 533 L937 523 L927 523 Q859 523 807 598 L737 663 L737 668 L752 683 Q801 663 852 663 L872 663 Q919 663 1017 683 L1017 708 Q922 723 922 738 L922 743 Q1087 833 1087 958 L1027 1023 L912 1003 Q642 1018 617 1058 L617 1063 Q617 1078 847 1123 Q1053 1198 1072 1218 L1077 1233 Q1059 1353 1017 1353 Q994 1363 992 1373 Q992 1401 1077 1453 Z" /><glyph glyph-name="" unicode="&#x65b0;" d="M621 1537 Q740 1537 858 1459 Q880 1436 886 1371 L891 1371 L1018 1426 Q1100 1379 1100 1327 L1106 1310 Q1106 1276 1023 1233 L1023 1217 Q1078 1167 1078 1156 Q1078 1111 974 1001 L974 990 L1095 935 Q1128 891 1199 891 Q1297 970 1359 1090 L1431 1244 Q1431 1272 1321 1310 L1321 1321 Q1321 1338 1359 1338 Q1503 1432 1524 1432 L1563 1437 L1590 1437 Q1623 1437 1662 1321 L1662 1277 Q1662 1240 1596 1161 Q1441 942 1265 869 L1254 847 Q1285 829 1332 703 Q1345 593 1370 593 L1381 593 Q1400 605 1475 720 Q1550 773 1667 786 Q1827 751 1827 692 Q1769 576 1684 576 Q1546 533 1546 510 Q1621 432 1662 289 Q1722 57 1722 -58 L1722 -85 Q1697 -229 1645 -229 Q1574 -229 1563 -25 L1563 -19 L1568 168 Q1542 483 1475 483 Q1370 483 1370 411 Q1370 313 1326 179 Q1313 85 1238 -8 Q1184 -47 1155 -47 Q1108 -47 1095 63 Q1073 116 1073 151 L1089 157 Q1122 135 1139 135 Q1195 159 1221 571 Q1198 714 1172 714 Q1117 680 1117 582 Q1073 491 1029 284 Q1029 260 880 234 L847 245 L836 234 L847 -14 Q847 -190 770 -190 Q693 -148 693 -58 L676 -58 Q665 -58 627 -190 Q586 -241 566 -251 L555 -251 Q484 -251 412 -91 Q432 -5 478 69 L511 174 Q511 196 467 196 Q429 230 429 311 L429 328 Q429 366 577 527 Q698 687 698 725 L698 736 L687 736 L687 742 Q636 734 500 610 L473 610 Q299 643 236 709 L236 720 L247 736 L313 731 L330 731 Q458 731 627 830 L638 847 L632 852 Q611 852 561 825 Q506 825 489 913 L489 935 Q489 1016 555 1040 Q576 1040 638 1095 L638 1112 L627 1112 L583 1101 L577 1101 Q434 1130 434 1244 L440 1250 L451 1250 Q486 1191 511 1189 Q632 1229 776 1316 L776 1321 L764 1332 L588 1316 L572 1344 L638 1421 L638 1443 Q588 1491 588 1515 L588 1520 Q594 1537 621 1537 ZM616 1007 L621 1001 L627 1001 Q720 1029 864 1161 L864 1167 Q864 1178 847 1178 Q649 1085 616 1007 ZM864 786 L864 747 Q864 713 935 676 Q968 645 968 610 L968 582 L919 472 L924 455 L935 455 Q957 455 1106 681 L1133 747 Q1133 795 985 847 L968 847 Q864 814 864 786 ZM693 565 L588 438 L588 422 L599 411 Q720 463 720 510 L720 549 Q720 561 693 565 ZM638 267 L638 256 L654 240 L676 240 Q704 254 704 284 L682 300 Q644 285 638 267 ZM566 179 Q566 165 594 151 L616 179 L616 190 L594 212 Q573 202 566 179 Z" /><glyph glyph-name="" unicode="&#x662f;" d="M1102 1537 L1128 1537 Q1190 1537 1202 1438 L1191 1396 L1196 1297 Q1196 1140 1175 844 Q1192 831 1269 813 Q1306 778 1306 756 Q1306 709 1139 636 Q1040 558 1034 506 L1050 491 L1546 558 Q1646 558 1687 454 L1693 438 Q1693 392 1484 392 L1364 392 Q1206 392 1066 225 L1040 105 Q1012 64 993 64 Q852 114 852 189 Q841 193 831 235 L852 360 L852 371 L836 371 L648 142 L648 131 Q648 110 784 90 Q899 71 1061 12 Q1350 -81 1761 -81 Q1888 -81 1923 -160 L1933 -186 Q1933 -243 1499 -243 L1463 -243 Q1278 -243 951 -71 L601 64 L596 64 Q569 64 481 -40 Q307 -170 162 -170 L141 -144 L141 -134 L183 -9 Q291 137 418 137 Q533 137 559 199 Q770 426 794 470 L789 475 L784 475 Q507 340 481 340 L392 324 Q329 331 329 360 Q329 448 413 485 Q689 739 831 824 L841 844 L841 949 L831 1063 L836 1099 Q836 1214 778 1282 L778 1297 L794 1313 Q930 1313 930 1240 Q930 1157 951 1157 Q1019 1157 1040 1115 L1040 1105 Q1040 1081 993 985 Q993 959 1061 954 Q1081 976 1081 1011 L1087 1271 Q1087 1386 1050 1386 L1045 1386 Q965 1349 883 1334 Q784 1368 784 1417 L784 1433 Q784 1461 805 1469 L815 1469 Q845 1433 867 1433 Q1076 1537 1102 1537 ZM940 735 L940 720 L951 709 L956 709 L1024 766 L1024 782 L1008 782 Q977 782 940 735 ZM601 506 L601 496 L606 496 Q627 496 820 579 L836 600 Q821 634 794 662 Q762 662 601 506 ZM1003 360 L1003 350 L1019 334 Q1077 366 1118 407 L1118 418 Q1067 454 1029 454 Q1003 454 1003 360 ZM204 -55 L204 -66 Q214 -87 230 -87 Q323 -37 449 90 L449 95 L434 111 Q354 111 235 12 Q204 -37 204 -55 Z" /><glyph glyph-name="" unicode="&#x6709;" d="M1021 1581 Q1097 1581 1221 1472 L1226 1453 L1211 1306 L1226 1296 Q1313 1351 1396 1386 L1401 1382 L1406 1382 L1451 1396 Q1656 1371 1656 1329 Q1686 1310 1686 1282 L1686 1263 Q1686 1187 1511 1173 L1506 1168 L1501 1168 L1441 1177 Q1353 1177 1201 1097 Q1118 1042 1081 907 L1081 897 L1086 893 L1101 893 Q1233 1007 1316 1007 Q1404 1007 1441 888 L1446 741 L1436 446 L1436 427 L1431 399 Q1446 263 1516 -147 L1521 -218 L1521 -261 Q1479 -356 1416 -356 L1401 -356 Q1346 -356 1211 -147 Q1097 -48 1091 5 L1096 10 L1111 10 Q1254 -85 1331 -85 L1346 -66 L1326 52 L1326 95 Q1326 195 1301 195 Q1238 171 1196 171 Q1101 171 1041 223 Q1018 214 1016 204 L1021 -66 Q1021 -227 946 -227 Q831 -156 831 -75 Q831 -29 881 256 L881 266 L876 294 Q886 310 891 432 Q886 499 871 499 L861 499 Q845 491 771 342 Q656 150 621 114 Q546 48 516 48 Q471 48 396 185 L396 195 L411 209 L446 204 Q553 204 721 579 Q808 723 851 902 Q851 914 826 926 Q790 887 631 850 L616 850 Q551 857 441 940 Q376 1009 376 1083 L376 1087 L386 1097 L391 1097 Q450 1016 501 1016 Q589 1016 901 1144 Q937 1144 961 1363 L961 1386 Q961 1440 936 1448 L876 1443 L876 1453 Q959 1557 971 1557 Q990 1581 1021 1581 ZM1001 665 Q1001 589 1031 589 L1186 636 Q1269 631 1291 622 L1311 636 L1311 755 Q1305 888 1276 897 L1266 897 L1166 783 Q1108 733 1006 674 L1001 669 L1001 665 ZM1231 427 Q1261 418 1301 380 L1306 380 L1321 394 L1321 499 L1311 508 L1301 508 Q1231 443 1231 427 Z" /><glyph glyph-name="" unicode="&#x6837;" d="M838 686 Q768 696 703 456 L689 327 L708 84 L703 50 L703 10 L699 -104 L703 -170 Q684 -312 639 -305 Q518 -213 518 -147 L514 -141 L518 -97 L491 -18 L495 -13 L505 -15 L542 -30 L546 -31 Q588 -37 588 167 L588 172 L579 184 L574 185 L528 106 L468 0 Q444 1 375 -106 L352 -107 L333 -104 Q233 -27 181 78 Q181 167 246 234 Q336 318 444 504 Q509 622 509 640 L500 656 Q311 554 260 562 L246 564 Q189 573 42 665 L33 676 L33 691 L42 700 L79 694 Q161 693 509 860 Q597 919 597 947 L597 972 L606 1341 Q606 1364 565 1422 L565 1442 Q565 1470 676 1461 Q754 1422 754 1399 Q754 1342 699 1017 Q710 985 731 982 Q762 977 796 975 L857 914 L851 909 L879 790 L870 741 L838 686 ZM949 664 L1208 745 Q1242 745 1253 890 Q1242 918 1219 918 L1050 878 Q999 881 999 890 L994 884 L926 884 L916 873 L842 934 Q1005 946 1230 1011 L1247 1034 L1247 1087 Q1247 1119 1219 1127 Q1058 1092 949 1092 Q900 1092 825 1156 L819 1179 L836 1197 L949 1185 L971 1185 Q1055 1185 1298 1249 Q1338 1249 1512 1446 L1523 1480 Q1506 1521 1472 1521 L1467 1527 L1467 1533 Q1467 1550 1528 1550 Q1697 1537 1697 1475 L1697 1469 Q1697 1420 1624 1336 L1624 1330 Q1624 1318 1709 1295 L1726 1272 L1726 1266 Q1679 1185 1579 1185 Q1376 1185 1376 1133 L1376 1087 Q1376 1040 1455 1040 Q1585 1033 1585 982 Q1585 959 1523 942 L1523 918 Q1754 878 1754 849 L1754 837 Q1754 817 1467 745 Q1376 723 1376 669 L1360 664 L1224 658 L1208 664 Q1001 606 932 606 L893 606 L932 675 L949 664 ZM1005 1440 Q1191 1440 1191 1336 Q1166 1303 1129 1295 Q1084 1301 943 1405 L943 1411 Q943 1431 1005 1440 ZM1371 837 L1399 814 Q1447 836 1450 849 L1450 866 L1405 913 Q1378 913 1371 837 ZM1562 636 L1590 636 Q1751 610 1751 554 L1756 532 Q1710 343 1600 242 Q1566 208 1552 208 L1552 195 Q1552 174 1670 156 L1817 82 Q1885 43 1907 -25 L1907 -51 L1893 -64 L1888 -64 Q1816 -64 1543 61 Q1445 104 1424 104 L1415 91 L1439 -81 Q1399 -272 1363 -272 Q1302 -350 1226 -350 Q1118 -350 1032 -207 L1008 -185 L947 -211 Q910 -211 880 -138 Q880 -91 951 5 L975 65 Q975 145 918 182 L914 182 Q898 182 880 169 L871 169 Q863 169 857 199 Q871 268 966 268 Q999 268 1041 199 L1060 195 L1084 203 L1093 169 Q1086 135 1074 121 L1079 117 L1079 113 L1060 65 L1065 43 Q1065 10 1027 -116 Q1027 -197 1131 -228 L1136 -233 L1136 -237 L1141 -233 L1145 -233 L1160 -241 L1212 -241 L1226 -233 L1231 -237 Q1335 -156 1335 -21 L1339 -17 L1335 0 L1339 31 Q1339 82 1292 82 Q1212 85 1212 113 Q1228 203 1283 203 L1292 221 Q1222 394 1174 394 Q1174 402 1093 415 L1074 441 Q1080 459 1098 467 L1108 467 L1183 459 Q1215 459 1240 506 L1240 510 L1216 532 L1207 532 Q1058 536 1056 554 L1056 567 Q1079 587 1216 614 L1221 619 L1235 619 L1240 614 L1245 614 Q1245 625 1287 627 Q1396 598 1396 571 L1396 554 Q1349 503 1283 485 L1245 459 Q1248 437 1268 437 Q1329 402 1349 338 Q1365 311 1387 229 L1410 212 L1420 212 Q1458 242 1566 385 Q1566 402 1595 446 L1590 450 L1590 454 L1609 502 Q1609 587 1566 610 L1552 623 L1552 627 L1562 636 Z" /><glyph glyph-name="" unicode="&#x683c;" d="M836 1539 Q897 1517 911 1489 L911 1484 Q871 1253 851 1074 L876 1054 L921 1054 L941 1059 L986 1044 L996 1044 Q1142 1147 1191 1329 L1211 1404 L1156 1464 L1156 1479 L1176 1494 Q1312 1475 1341 1384 L1341 1364 Q1341 1309 1286 1194 L1301 1189 L1456 1279 L1491 1279 Q1579 1279 1631 1219 L1631 1194 Q1631 1150 1426 909 Q1356 803 1356 789 Q1356 779 1371 779 L1726 819 L1731 819 Q1961 797 1961 714 L1961 689 Q1961 639 1826 614 Q1773 574 1456 524 L1426 519 Q1396 531 1396 539 L1396 544 Q1409 567 1561 639 L1631 689 L1616 709 L1601 709 Q1549 694 1256 674 Q1181 574 1056 434 Q1056 399 1021 399 L856 239 L851 234 L851 229 L861 164 L851 -21 L856 -86 Q836 -231 786 -231 Q656 -157 656 -91 L651 -86 L656 -41 Q629 44 591 44 Q578 44 501 -71 L476 -76 L456 -76 Q347 -14 291 84 Q291 173 361 249 Q460 347 576 549 Q646 676 646 694 L636 704 Q603 696 506 634 Q379 579 326 579 L311 579 Q244 579 181 639 L181 674 L286 719 Q575 846 736 994 L741 1019 L741 1044 L746 1299 Q746 1368 701 1494 Q701 1535 836 1539 ZM1071 934 L1046 949 L1041 944 L1036 944 L1046 889 Q1046 859 981 789 Q989 769 996 769 L1151 764 Q1188 764 1296 944 L1371 1089 L1371 1104 L1366 1104 L1171 964 Q1099 934 1071 934 ZM936 719 Q912 719 831 509 Q833 369 856 369 L866 369 Q1036 574 1106 674 Q1106 704 986 709 L936 719 ZM1581 499 Q1721 460 1721 389 Q1721 280 1536 94 Q1536 83 1601 39 Q1616 -6 1616 -51 Q1602 -86 1576 -101 Q1386 -66 1301 -66 L1286 -81 L1291 -141 L1291 -176 Q1275 -211 1246 -211 L1236 -211 Q1096 -126 1096 14 L1106 214 Q1106 280 1056 389 L1061 394 Q1161 349 1161 294 Q1187 294 1226 99 Q1236 24 1256 24 Q1348 24 1386 144 Q1437 209 1466 289 L1466 299 Q1466 310 1441 314 L1336 304 L1321 304 Q1211 319 1211 344 L1211 349 Q1215 359 1356 399 Q1554 499 1571 499 L1581 499 ZM621 89 Q643 29 681 29 L686 29 Q712 29 726 149 L721 224 L731 234 L731 244 L721 254 L716 254 Q702 254 696 204 Q621 133 621 89 Z" /><glyph glyph-name="" unicode="&#x6bd4;" d="M1493 1411 L1523 1411 Q1653 1347 1653 1236 Q1517 987 1418 911 L1268 766 Q1173 753 1173 711 L1178 626 L1173 556 Q1180 371 1258 371 Q1258 352 1403 336 Q1678 361 1678 386 Q1719 401 1753 401 L1758 401 Q1948 356 1948 306 Q1959 299 1978 226 Q1978 151 1848 141 Q1670 101 1533 101 Q1284 112 1258 141 Q1093 226 1093 351 L1048 666 L1033 676 L1028 676 L958 656 L933 656 L923 666 L923 676 Q1058 795 1058 836 L1063 861 L1053 886 L1058 961 Q1058 1030 913 1236 L913 1246 Q913 1291 953 1306 Q1168 1306 1168 966 L1168 946 L1188 946 Q1353 1151 1363 1231 Q1363 1244 1338 1256 L1263 1246 L1258 1251 L1258 1261 L1348 1326 Q1352 1351 1468 1391 L1493 1411 ZM753 1076 Q898 1076 898 1026 Q928 1000 928 931 Q928 756 823 721 Q776 730 683 876 L653 886 L623 866 L603 881 Q620 1056 668 1056 Q668 1066 733 1066 L753 1076 ZM313 986 L318 986 Q332 980 373 886 L573 746 L613 441 L618 436 L628 436 L713 526 L718 526 L733 511 Q703 416 668 351 Q521 52 493 -44 L453 -89 L433 -89 Q308 18 308 51 Q308 102 398 286 L433 396 L438 441 L438 506 L443 531 Q443 656 388 656 Q308 738 308 876 Q300 876 298 911 Q298 986 313 986 Z" /><glyph glyph-name="" unicode="&#x6d77;" d="M1189 1523 Q1265 1487 1299 1398 L1299 1383 Q1255 1246 1184 1183 Q1154 1141 1154 1123 L1169 1108 L1174 1108 Q1276 1170 1394 1263 Q1497 1323 1514 1323 Q1583 1323 1624 1213 L1629 1163 Q1629 1132 1364 1043 Q1233 981 1214 958 L1214 948 Q1214 939 1304 898 Q1320 848 1339 848 Q1395 876 1474 933 Q1507 953 1559 963 Q1689 922 1689 858 L1694 853 L1669 738 Q1674 721 1689 718 L1804 728 Q1954 728 1954 573 Q1954 551 1849 538 L1804 543 Q1614 543 1614 463 L1579 303 Q1579 271 1694 258 Q1889 186 1934 98 L1964 33 Q1964 -12 1849 -27 Q1825 -27 1724 83 Q1610 168 1564 168 Q1540 168 1514 33 Q1448 -131 1334 -212 L1309 -217 L1299 -217 Q1263 -217 1249 -32 L1249 18 L1254 18 Q1304 -52 1339 -52 Q1390 -52 1449 113 L1459 163 Q1459 183 1359 188 Q1319 188 1259 73 Q1223 28 1154 28 Q1133 28 1054 93 L1044 93 L1044 98 Q969 63 939 38 L924 38 Q909 38 879 128 Q879 140 1014 368 L999 373 Q895 313 859 313 Q839 313 599 418 Q499 365 499 263 L499 168 L494 23 Q520 -86 569 -127 L589 -142 Q644 -142 764 68 L819 153 L824 153 L834 143 L834 93 Q834 -68 704 -307 Q685 -322 669 -322 L654 -322 Q576 -310 519 -252 Q480 -205 434 -97 L439 -67 L429 28 Q429 389 454 498 Q454 538 304 593 L299 598 L299 613 L309 623 L404 623 L529 643 Q724 581 724 528 Q730 468 749 468 Q1017 543 1074 568 Q1147 617 1184 768 L1194 848 Q1169 908 1129 908 L989 853 L984 853 Q919 853 919 958 L919 998 Q919 1050 1044 1198 Q1099 1293 1099 1333 L1099 1338 Q1099 1354 1069 1393 L1069 1403 Q1111 1489 1189 1523 ZM609 1308 Q859 1224 859 1058 Q859 1033 749 1023 L709 1033 L499 1008 L494 1013 L494 1028 Q559 1103 559 1163 Q546 1188 444 1188 L434 1203 Q504 1293 574 1293 Q574 1299 609 1308 ZM1439 748 L1464 698 L1459 678 L1474 668 L1479 668 Q1532 668 1554 703 L1554 748 Q1554 786 1529 798 L1519 798 Q1439 783 1439 748 ZM1244 633 Q1253 610 1264 608 Q1359 624 1359 668 L1359 708 Q1359 735 1329 753 L1304 753 Q1283 753 1244 633 ZM1044 223 L1059 213 Q1284 284 1284 323 L1284 328 L1274 378 Q1280 418 1309 418 Q1399 405 1399 363 Q1399 339 1384 328 Q1393 305 1404 303 L1469 303 Q1499 303 1509 473 L1514 518 L1499 533 Q1249 475 1214 458 Q1124 381 1044 223 ZM1149 138 L1149 128 L1154 128 Q1179 128 1184 143 L1184 148 L1169 148 L1149 138 Z" /><glyph glyph-name="" unicode="&#x7406;" d="M1752 1569 Q1912 1559 1950 1444 Q1950 1185 1695 928 Q1646 894 1622 895 L1554 900 Q1521 902 1514 876 Q1514 812 1616 763 Q1656 701 1656 616 Q1656 592 1594 466 L1588 440 Q1588 351 1786 171 Q1814 114 1814 95 Q1781 6 1718 10 L1424 -50 Q1371 -63 1305 -59 L1299 -58 Q1141 -27 1141 74 Q1141 220 1260 285 L1277 310 L1277 321 L1260 338 L1243 339 L1220 335 Q1153 340 1096 487 L1096 503 Q1136 604 1265 721 Q1390 767 1390 804 L1390 841 Q1390 853 1361 859 Q1330 845 1254 850 L1237 856 Q1214 858 1214 810 L1186 796 Q1092 802 994 1048 Q946 1216 931 1217 L920 1218 Q866 1162 665 1074 L660 1053 Q847 984 847 817 Q864 789 864 742 Q841 613 818 558 L824 531 Q834 531 954 656 L965 655 L977 644 L977 639 L948 566 L948 529 L897 457 L897 425 Q897 375 779 273 Q653 97 535 -4 L484 -32 Q360 49 360 151 Q369 195 513 301 L513 317 Q445 420 445 476 Q445 609 569 755 Q694 833 694 865 L694 902 Q665 1026 609 1030 L558 1017 Q490 1025 292 1157 L292 1167 Q292 1183 388 1188 Q569 1257 813 1368 Q842 1366 852 1387 L852 1398 L841 1414 L841 1420 L852 1430 L858 1429 L1079 1314 L1101 1312 Q1118 1311 1475 1464 L1735 1565 L1752 1569 ZM1537 1284 L1560 1267 Q1588 1281 1616 1279 L1656 1256 Q1689 1253 1712 1380 L1678 1403 Q1543 1380 1543 1327 L1537 1284 ZM1146 1240 Q1176 1095 1203 1093 Q1401 1150 1401 1208 L1395 1214 L1395 1219 L1407 1277 Q1394 1315 1373 1316 Q1291 1271 1158 1256 Q1158 1240 1146 1240 ZM1526 1067 L1526 1061 L1548 1044 Q1587 1042 1616 1104 L1605 1126 Q1526 1110 1526 1067 ZM1186 1030 Q1189 939 1226 937 Q1363 979 1378 1007 L1378 1028 L1356 1051 L1328 1048 L1311 1049 L1220 1060 Q1205 1061 1186 1030 ZM586 541 L586 520 Q590 488 603 487 L615 486 Q634 485 671 605 L682 658 L665 669 Q586 611 586 541 ZM1175 482 Q1200 443 1231 441 Q1272 438 1356 545 L1367 592 L1367 603 L1350 620 Q1227 584 1175 498 L1175 482 ZM1503 360 L1345 189 Q1350 167 1378 165 Q1543 171 1543 213 L1543 245 Q1543 357 1509 359 L1503 360 Z" /><glyph glyph-name="" unicode="&#x751f;" d="M1513 1538 Q1549 1538 1613 1443 L1613 1433 Q1573 1331 1573 1228 Q1573 1063 1593 1063 L1603 1063 Q1720 1113 1743 1113 L1748 1113 Q1782 1113 1823 1053 Q1823 996 1598 938 Q1579 938 1558 683 L1558 673 Q1558 650 1648 633 Q1738 600 1738 543 L1738 533 Q1738 505 1663 453 L1558 368 Q1563 269 1573 258 L1568 213 Q1570 158 1578 158 L1568 63 L1593 48 L1658 63 Q1850 63 1888 -67 L1898 -107 Q1865 -182 1843 -182 Q1803 -167 1663 -152 L1643 -152 L1593 -157 L1553 -152 L1128 -227 Q1065 -197 1023 -72 L1143 83 L1143 98 Q1038 186 1038 258 Q1013 294 1013 348 L1013 353 Q1013 401 1098 488 Q1141 515 1318 553 Q1381 580 1408 623 Q1405 868 1383 868 L1373 868 Q1174 828 1043 723 Q980 678 928 678 L888 678 Q848 678 848 743 L848 788 Q848 808 908 973 L913 1008 Q913 1049 818 1113 L803 1133 L803 1138 Q803 1148 818 1148 Q887 1144 1023 1088 Q1118 1018 1118 933 L1113 868 L1128 858 Q1388 922 1388 973 L1393 1008 Q1356 1348 1333 1348 Q1281 1365 1278 1383 L1278 1388 Q1343 1538 1513 1538 ZM1083 363 L1083 358 Q1083 198 1178 143 L1193 143 Q1234 143 1378 333 L1393 363 Q1384 388 1368 388 L1313 383 Q1201 408 1133 408 L1113 408 Q1083 390 1083 363 ZM1248 118 L1248 108 L1258 98 L1293 98 Q1393 98 1393 173 Q1388 203 1378 203 L1363 203 Q1332 172 1248 118 ZM1093 -57 L1093 -67 L1108 -82 Q1313 -57 1313 -32 L1313 -27 Q1206 58 1188 58 Q1166 58 1093 -57 Z" /><glyph glyph-name="" unicode="&#x7528;" d="M1649 1388 Q1771 1388 1854 1293 Q1875 1293 1889 1018 L1884 913 L1914 128 L1914 78 Q1914 23 1849 -127 Q1825 -147 1799 -147 Q1713 -135 1489 53 L1429 83 Q1415 83 1374 38 L1364 38 Q1259 77 1259 128 Q1229 155 1229 213 L1229 223 L1244 368 Q1244 383 1219 408 L1194 403 Q1092 403 1074 448 L1074 453 L1059 453 Q1046 453 1019 218 Q965 -8 834 -102 L744 -177 L739 -177 Q669 -160 669 -117 L669 -72 L659 -27 Q659 16 699 123 Q725 296 804 398 L819 383 Q784 258 784 153 L789 133 L809 133 Q939 446 939 698 L944 718 L914 898 Q884 968 834 1033 L794 1138 Q819 1333 839 1333 L849 1333 Q863 1333 889 1203 Q959 1121 994 1098 Q1038 1004 1049 1003 L1054 1003 Q1156 1127 1304 1238 Q1403 1319 1634 1388 L1649 1388 ZM1434 978 L1449 963 L1494 963 Q1544 951 1544 918 Q1544 866 1429 778 L1434 703 L1434 693 L1454 673 L1479 673 Q1594 673 1594 548 Q1594 511 1449 458 Q1424 428 1424 393 L1429 373 L1424 368 L1429 338 Q1424 229 1414 213 Q1414 173 1444 153 Q1694 167 1694 233 L1694 273 L1689 368 L1694 473 L1694 513 Q1694 555 1684 578 L1689 658 L1689 673 L1684 728 L1694 753 L1679 968 L1684 973 L1684 978 Q1679 1188 1649 1188 L1629 1188 Q1549 1188 1464 1053 Q1434 995 1434 978 ZM1109 873 L1109 868 L1129 848 Q1244 876 1244 918 L1244 948 Q1244 960 1224 963 Q1150 922 1109 873 ZM1059 658 L1064 643 L1079 643 L1124 698 Q1124 724 1089 738 Q1062 738 1059 658 ZM1214 698 Q1075 596 1064 573 L1064 558 Q1064 548 1094 538 Q1244 566 1244 608 L1239 688 L1214 698 Z" /></font>
</defs>
</svg>
